M48
; DRILL file {KiCad (6.0.10)} date Mon May 22 23:47:15 2023
; FORMAT={-:-/ absolute / metric / decimal}
; #@! TF.CreationDate,2023-05-22T23:47:15+09:00
; #@! TF.GenerationSoftware,Kicad,Pcbnew,(6.0.10)
; #@! TF.FileFunction,Plated,1,2,PTH
FMAT,2
METRIC
; #@! TA.AperFunction,Plated,PTH,ViaDrill
T1C0.400
; #@! TA.AperFunction,Plated,PTH,ComponentDrill
T2C0.700
; #@! TA.AperFunction,Plated,PTH,ComponentDrill
T3C0.800
; #@! TA.AperFunction,Plated,PTH,ComponentDrill
T4C0.813
; #@! TA.AperFunction,Plated,PTH,ComponentDrill
T5C1.000
; #@! TA.AperFunction,Plated,PTH,ComponentDrill
T6C1.300
; #@! TA.AperFunction,Plated,PTH,ComponentDrill
T7C2.000
; #@! TA.AperFunction,Plated,PTH,ComponentDrill
T8C2.700
%
G90
G05
T1
X20.123Y-105.141
X27.16Y-36.029
X39.744Y-52.384
X41.377Y-108.864
X41.829Y-39.867
X43.624Y-72.481
X45.731Y-105.146
X45.845Y-63.546
X47.993Y-64.693
X48.708Y-31.561
X48.719Y-21.304
X52.312Y-74.615
X55.483Y-63.546
X57.597Y-33.062
X58.613Y-58.73
X60.127Y-18.671
X60.14Y-31.561
X61.525Y-30.435
X61.64Y-52.36
X67.138Y-72.454
X68.615Y-58.73
X72.377Y-66.733
X75.845Y-34.626
X79.099Y-23.175
X85.353Y-34.97
X89.948Y-54.22
X93.564Y-36.085
X94.787Y-76.278
X96.051Y-56.125
X97.531Y-54.122
X98.831Y-55.356
X100.134Y-88.102
X101.836Y-22.076
X102.644Y-36.085
X104.01Y-58.896
X105.281Y-36.54
X105.634Y-55.553
X107.243Y-75.733
X110.33Y-48.905
X114.276Y-66.764
X117.585Y-100.632
X120.033Y-37.524
X123.988Y-45.11
X124.899Y-57.166
X124.928Y-39.505
X125.693Y-78.024
X127.54Y-80.126
X129.97Y-66.739
X131.185Y-81.699
X132.428Y-41.834
X133.424Y-67.796
X136.726Y-60.745
X139.989Y-47.009
X141.275Y-41.834
X141.308Y-49.622
X141.308Y-62.888
X141.329Y-100.647
X142.308Y-39.505
X143.764Y-64.436
X144.244Y-50.595
X150.162Y-79.882
X152.784Y-68.52
X161.51Y-61.82
X161.529Y-63.302
X163.746Y-81.338
X166.447Y-19.847
X166.447Y-47.213
X167.777Y-47.213
X177.745Y-32.731
X184.013Y-41.274
X184.697Y-52.431
X185.167Y-63.299
X185.929Y-81.346
X186.772Y-79.869
X189.038Y-87.142
X196.198Y-44.973
X197.686Y-59.176
X199.021Y-87.138
X199.137Y-40.414
X199.137Y-65.062
X203.124Y-60.481
X203.699Y-39.259
X203.929Y-45.834
X212.604Y-78.172
X215.071Y-79.758
X215.376Y-69.568
X216.155Y-58.168
X217.41Y-64.138
X217.639Y-38.257
X218.446Y-61.331
X221.456Y-64.195
X223.258Y-36.718
X223.409Y-55.145
X226.639Y-76.966
X227.402Y-88.103
X231.282Y-35.869
X234.21Y-76.782
X235.268Y-61.467
X237.201Y-56.443
X239.534Y-42.653
X246.599Y-101.804
X248.425Y-76.752
X249.369Y-75.783
X253.734Y-62.561
X254.616Y-34.161
X255.528Y-101.791
X255.832Y-53.959
X257.628Y-81.704
X262.376Y-39.493
X264.319Y-52.53
X273.314Y-63.398
X275.459Y-57.442
X276.176Y-32.551
X277.482Y-58.683
X281.956Y-38.93
X281.956Y-58.184
X286.897Y-57.458
X290.633Y-69.278
X296.805Y-52.53
X297.344Y-60.864
X298.017Y-73.4
X310.315Y-34.97
X312.919Y-33.517
T4
X23.308Y-18.675
X23.308Y-33.895
X25.848Y-18.675
X25.848Y-33.895
X28.388Y-18.675
X28.388Y-33.895
X30.928Y-18.675
X30.928Y-33.895
X33.468Y-18.675
X33.468Y-33.895
X36.008Y-18.675
X36.008Y-33.895
X38.548Y-18.675
X38.548Y-33.895
X41.088Y-18.675
X41.088Y-33.895
X43.628Y-18.675
X43.628Y-33.895
X46.168Y-18.675
X46.168Y-33.895
X48.708Y-18.675
X48.708Y-33.895
X51.248Y-18.675
X51.248Y-33.895
X53.788Y-18.675
X53.788Y-33.895
T5
X33.219Y-92.513
X33.219Y-107.012
X35.719Y-92.513
X38.219Y-92.513
X38.219Y-107.012
X304.681Y-92.513
X304.681Y-107.012
X307.181Y-92.513
X309.681Y-92.513
X309.681Y-107.012
T6
X184.869Y-20.851
X191.369Y-20.851
T8
X165.9Y-59.04
X177.0Y-59.04
T2
G00X168.8Y-51.54
M15
G01X169.1Y-51.54
M16
G05
G00X168.8Y-66.04
M15
G01X169.1Y-66.04
M16
G05
G00X171.3Y-51.54
M15
G01X171.6Y-51.54
M16
G05
G00X173.8Y-51.54
M15
G01X174.1Y-51.54
M16
G05
G00X173.8Y-66.04
M15
G01X174.1Y-66.04
M16
G05
T3
G00X149.848Y-20.447
M15
G01X149.848Y-20.447
M16
G05
G00X152.348Y-20.447
M15
G01X152.348Y-20.447
M16
G05
G00X154.848Y-20.447
M15
G01X154.848Y-20.447
M16
G05
T7
G00X30.119Y-99.612
M15
G01X30.119Y-100.412
M16
G05
G00X41.319Y-99.612
M15
G01X41.319Y-100.412
M16
G05
G00X301.581Y-99.612
M15
G01X301.581Y-100.412
M16
G05
G00X312.781Y-99.612
M15
G01X312.781Y-100.412
M16
G05
T0
M30
