M48
; DRILL file {KiCad (6.0.10)} date Mon May 22 23:47:15 2023
; FORMAT={-:-/ absolute / metric / decimal}
; #@! TF.CreationDate,2023-05-22T23:47:15+09:00
; #@! TF.GenerationSoftware,Kicad,Pcbnew,(6.0.10)
; #@! TF.FileFunction,NonPlated,1,2,NPTH
FMAT,2
METRIC
; #@! TA.AperFunction,NonPlated,NPTH,ComponentDrill
T1C2.000
; #@! TA.AperFunction,NonPlated,NPTH,ComponentDrill
T2C3.000
; #@! TA.AperFunction,NonPlated,NPTH,ComponentDrill
T3C4.000
%
G90
G05
T1
X25.46Y-28.55
X26.876Y-48.625
X30.639Y-69.36
X35.62Y-28.55
X37.036Y-48.625
X40.799Y-69.36
X44.99Y-28.713
X48.787Y-48.788
X55.144Y-29.067
X57.312Y-69.523
X58.941Y-49.142
X64.502Y-29.553
X67.466Y-69.877
X68.299Y-49.631
X73.295Y-102.301
X74.637Y-30.261
X76.824Y-70.366
X78.435Y-50.339
X83.399Y-101.239
X83.973Y-31.074
X86.96Y-71.074
X87.77Y-51.155
X94.077Y-32.136
X96.295Y-71.889
X97.875Y-52.217
X102.229Y-99.674
X103.379Y-33.278
X106.4Y-72.951
X107.176Y-53.357
X112.365Y-98.966
X113.44Y-34.692
X115.701Y-74.093
X117.237Y-54.771
X122.742Y-35.829
X125.762Y-75.507
X126.539Y-55.909
X131.566Y-98.13
X132.846Y-36.891
X135.064Y-76.647
X136.643Y-56.971
X141.726Y-98.13
X142.182Y-37.703
X145.168Y-77.709
X145.979Y-57.781
X152.317Y-38.411
X154.504Y-78.521
X156.115Y-58.489
X164.639Y-79.229
X178.15Y-79.239
X181.012Y-38.404
X186.792Y-58.191
X188.285Y-78.531
X191.148Y-37.696
X196.928Y-57.483
X197.621Y-77.716
X200.483Y-36.881
X200.941Y-98.13
X206.263Y-56.667
X207.725Y-76.654
X210.588Y-35.819
X211.101Y-98.13
X216.368Y-55.604
X217.027Y-75.512
X219.889Y-34.677
X225.669Y-54.464
X227.088Y-74.098
X229.95Y-33.263
X230.302Y-98.966
X235.73Y-53.05
X236.389Y-72.956
X239.251Y-32.121
X240.438Y-99.674
X245.031Y-51.907
X246.493Y-71.894
X249.356Y-31.059
X255.136Y-50.845
X255.829Y-71.08
X258.691Y-30.244
X259.268Y-101.239
X264.471Y-50.031
X265.964Y-70.372
X268.827Y-29.536
X269.372Y-102.301
X274.607Y-49.323
X275.323Y-69.88
X278.185Y-29.042
X283.965Y-48.832
X285.477Y-69.526
X288.338Y-28.688
X294.119Y-48.478
X301.99Y-69.36
X302.471Y-28.528
X305.87Y-48.315
X312.15Y-69.36
X312.631Y-28.528
X316.03Y-48.315
T2
X26.73Y-26.01
X28.146Y-46.085
X31.909Y-66.82
X33.08Y-23.47
X34.496Y-43.545
X38.259Y-64.28
X46.348Y-26.219
X50.145Y-46.294
X52.782Y-23.902
X56.58Y-43.977
X58.67Y-67.029
X65.105Y-64.712
X65.946Y-27.107
X69.743Y-47.185
X72.458Y-25.017
X74.293Y-99.642
X76.255Y-45.095
X78.268Y-67.92
X80.342Y-96.452
X84.78Y-65.83
X85.502Y-28.681
X89.299Y-48.762
X92.082Y-26.818
X95.879Y-46.899
X97.824Y-69.496
X103.319Y-97.052
X104.404Y-67.633
X104.99Y-30.939
X108.787Y-51.018
X109.476Y-94.075
X111.631Y-29.308
X115.429Y-49.387
X117.312Y-71.754
X123.954Y-70.123
X124.27Y-33.436
X128.067Y-53.516
X130.851Y-31.573
X132.836Y-95.59
X134.648Y-51.653
X136.592Y-74.254
X139.186Y-93.05
X143.173Y-72.391
X143.626Y-35.257
X147.423Y-55.335
X150.138Y-33.167
X153.935Y-53.245
X155.948Y-76.075
X162.46Y-73.985
X167.64Y-56.5
X173.99Y-53.96
X179.24Y-76.617
X182.102Y-35.782
X185.397Y-73.64
X187.882Y-55.569
X188.259Y-32.805
X194.04Y-52.592
X198.618Y-75.057
X201.481Y-34.222
X202.211Y-95.59
X204.668Y-71.867
X207.261Y-54.008
X207.53Y-31.032
X208.561Y-93.05
X213.31Y-50.818
X217.931Y-72.82
X220.793Y-31.985
X223.865Y-69.421
X226.573Y-51.772
X226.728Y-28.586
X231.746Y-96.52
X232.508Y-48.373
X237.386Y-70.297
X238.258Y-94.43
X240.249Y-29.462
X243.436Y-67.107
X246.029Y-49.248
X246.299Y-26.272
X252.079Y-46.058
X256.919Y-68.458
X259.781Y-27.622
X260.796Y-98.846
X263.076Y-65.481
X265.561Y-47.409
X265.938Y-24.645
X267.377Y-96.983
X271.718Y-44.432
X276.503Y-67.298
X279.365Y-26.46
X282.761Y-64.537
X285.146Y-46.25
X285.623Y-23.699
X291.403Y-43.489
X303.26Y-66.82
X303.741Y-25.988
X307.14Y-45.775
X309.61Y-64.28
X310.091Y-23.448
X313.49Y-43.235
T3
X30.54Y-28.55
X31.956Y-48.625
X35.719Y-69.36
X50.067Y-28.89
X53.864Y-48.965
X62.389Y-69.7
X69.57Y-29.907
X73.367Y-49.985
X78.347Y-101.77
X81.892Y-70.72
X89.025Y-31.605
X92.822Y-51.686
X101.347Y-72.42
X107.297Y-99.32
X108.409Y-33.985
X112.207Y-54.064
X120.731Y-74.8
X127.794Y-36.36
X131.591Y-56.44
X136.646Y-98.13
X140.116Y-77.178
X147.249Y-38.057
X151.047Y-58.135
X159.572Y-78.875
X171.45Y-59.04
X183.218Y-78.885
X186.08Y-38.05
X191.86Y-57.837
X202.673Y-77.185
X205.535Y-36.35
X206.021Y-98.13
X211.315Y-56.136
X222.057Y-74.805
X224.919Y-33.97
X230.7Y-53.757
X235.37Y-99.32
X241.441Y-72.425
X244.303Y-31.59
X250.083Y-51.376
X260.897Y-70.726
X263.759Y-29.89
X264.32Y-101.77
X269.539Y-49.677
X280.4Y-69.703
X283.262Y-28.865
X289.042Y-48.655
X307.07Y-69.36
X307.551Y-28.528
X310.95Y-48.315
T0
M30
