G04 #@! TF.GenerationSoftware,KiCad,Pcbnew,(6.0.10)*
G04 #@! TF.CreationDate,2023-05-22T23:46:38+09:00*
G04 #@! TF.ProjectId,PARALLAX,50415241-4c4c-4415-982e-6b696361645f,rev?*
G04 #@! TF.SameCoordinates,Original*
G04 #@! TF.FileFunction,Legend,Top*
G04 #@! TF.FilePolarity,Positive*
%FSLAX46Y46*%
G04 Gerber Fmt 4.6, Leading zero omitted, Abs format (unit mm)*
G04 Created by KiCad (PCBNEW (6.0.10)) date 2023-05-22 23:46:38*
%MOMM*%
%LPD*%
G01*
G04 APERTURE LIST*
%ADD10C,0.150000*%
%ADD11C,0.120000*%
%ADD12C,4.000000*%
%ADD13C,2.000000*%
G04 APERTURE END LIST*
D10*
X147847700Y-19146700D02*
X156847700Y-19146700D01*
X156847700Y-21896700D02*
X147847700Y-21896700D01*
X156847700Y-19146700D02*
X156847700Y-21896700D01*
X147847700Y-21896700D02*
X147847700Y-19146700D01*
X30162550Y-94456250D02*
X30162550Y-95250000D01*
X41275050Y-105568750D02*
X40481300Y-105568750D01*
X30162550Y-105568750D02*
X30956300Y-105568750D01*
X30956300Y-94456250D02*
X30162550Y-94456250D01*
X30162550Y-104775000D02*
X30162550Y-105568750D01*
X41275050Y-95250000D02*
X41275050Y-94456250D01*
X41275050Y-94456250D02*
X40481300Y-94456250D01*
X41275050Y-104775000D02*
X41275050Y-105568750D01*
X166450000Y-52039900D02*
X164450000Y-52039900D01*
X176450000Y-66039900D02*
X178450000Y-66039900D01*
D11*
X175250000Y-51539900D02*
X175550000Y-51239900D01*
X175550000Y-51839900D02*
X175250000Y-51539900D01*
D10*
X164450000Y-66039900D02*
X166450000Y-66039900D01*
X178450000Y-52039900D02*
X176450000Y-52039900D01*
X178450000Y-54039900D02*
X178450000Y-52039900D01*
X164450000Y-64039900D02*
X164450000Y-66039900D01*
X164450000Y-52039900D02*
X164450000Y-54039900D01*
D11*
X175550000Y-51239900D02*
X175550000Y-51839900D01*
D10*
X178450000Y-66039900D02*
X178450000Y-64039900D01*
X312737550Y-105568750D02*
X311943800Y-105568750D01*
X312737550Y-94456250D02*
X311943800Y-94456250D01*
X312737550Y-104775000D02*
X312737550Y-105568750D01*
X312737550Y-95250000D02*
X312737550Y-94456250D01*
X301625050Y-104775000D02*
X301625050Y-105568750D01*
X301625050Y-105568750D02*
X302418800Y-105568750D01*
X302418800Y-94456250D02*
X301625050Y-94456250D01*
X301625050Y-94456250D02*
X301625050Y-95250000D01*
D12*
X131591000Y-56440000D03*
D13*
X136643171Y-56971005D03*
X126538829Y-55908995D03*
X225669038Y-54463999D03*
X235730162Y-53050001D03*
D12*
X230699600Y-53757000D03*
D13*
X35620000Y-28550000D03*
D12*
X30540000Y-28550000D03*
D13*
X25460000Y-28550000D03*
X206263229Y-56666505D03*
X216367571Y-55604495D03*
D12*
X211315400Y-56135500D03*
D13*
X40798800Y-69360000D03*
D12*
X35718800Y-69360000D03*
D13*
X30638800Y-69360000D03*
D12*
X108409200Y-33985000D03*
D13*
X103378638Y-33278001D03*
X113439762Y-34691999D03*
X268826525Y-29535637D03*
D12*
X263758900Y-29890000D03*
D13*
X258691275Y-30244363D03*
X191147625Y-37695637D03*
D12*
X186080000Y-38050000D03*
D13*
X181012375Y-38404363D03*
D12*
X235370000Y-99320000D03*
D13*
X230302375Y-98965637D03*
X240437625Y-99674363D03*
D12*
X307550700Y-28528000D03*
D13*
X302470700Y-28528000D03*
X312630700Y-28528000D03*
X305870000Y-48315000D03*
X316030000Y-48315000D03*
D12*
X310950000Y-48315000D03*
D13*
X255135671Y-50844995D03*
X245031329Y-51907005D03*
D12*
X250083500Y-51376000D03*
D13*
X68299375Y-49630637D03*
D12*
X73367000Y-49985000D03*
D13*
X78434625Y-50339363D03*
D12*
X283261500Y-28865000D03*
D13*
X288338405Y-28687711D03*
X278184595Y-29042289D03*
X94077371Y-32136005D03*
D12*
X89025200Y-31605000D03*
D13*
X83973029Y-31073995D03*
D12*
X120731500Y-74800000D03*
D13*
X125762062Y-75506999D03*
X115700938Y-74093001D03*
X132845971Y-36891005D03*
X122741629Y-35828995D03*
D12*
X127793800Y-36360000D03*
X206021200Y-98130000D03*
D13*
X200941200Y-98130000D03*
X211101200Y-98130000D03*
D12*
X241441100Y-72425000D03*
D13*
X236388929Y-72956005D03*
X246493271Y-71893995D03*
X196927725Y-57482637D03*
D12*
X191860100Y-57837000D03*
D13*
X186792475Y-58191363D03*
X207725271Y-76653995D03*
D12*
X202673100Y-77185000D03*
D13*
X197620929Y-77716005D03*
D12*
X81892000Y-70720000D03*
D13*
X86959625Y-71074363D03*
X76824375Y-70365637D03*
D12*
X101347400Y-72420000D03*
D13*
X106399571Y-72951005D03*
X96295229Y-71888995D03*
D12*
X289042100Y-48655000D03*
D13*
X283965195Y-48832289D03*
X294119005Y-48477711D03*
X191368750Y-20850700D03*
X184868750Y-20850700D03*
D12*
X307070000Y-69360000D03*
D13*
X301990000Y-69360000D03*
X312150000Y-69360000D03*
X239251329Y-32121005D03*
D12*
X244303500Y-31590000D03*
D13*
X249355671Y-31058995D03*
X200483229Y-36881005D03*
D12*
X205535400Y-36350000D03*
D13*
X210587571Y-35818995D03*
X48787195Y-48787711D03*
D12*
X53864100Y-48965000D03*
D13*
X58941005Y-49142289D03*
D12*
X62389100Y-69700000D03*
D13*
X57312195Y-69522711D03*
X67466005Y-69877289D03*
D12*
X151047000Y-58135000D03*
D13*
X145979375Y-57780637D03*
X156114625Y-58489363D03*
X112364625Y-98965637D03*
X102229375Y-99674363D03*
D12*
X107297000Y-99320000D03*
D13*
X87770229Y-51154995D03*
X97874571Y-52217005D03*
D12*
X92822400Y-51686000D03*
X222057100Y-74805000D03*
D13*
X227087662Y-74098001D03*
X217026538Y-75511999D03*
D12*
X264319800Y-101770000D03*
D13*
X259267629Y-101238995D03*
X269371971Y-102301005D03*
D12*
X280399600Y-69703000D03*
D13*
X275322695Y-69880289D03*
X285476505Y-69525711D03*
X135063829Y-76646995D03*
D12*
X140116000Y-77178000D03*
D13*
X145168171Y-77709005D03*
X164639325Y-79229363D03*
D12*
X159571700Y-78875000D03*
D13*
X154504075Y-78520637D03*
X265964225Y-70371637D03*
D12*
X260896600Y-70726000D03*
D13*
X255828975Y-71080363D03*
D12*
X31956300Y-48625000D03*
D13*
X26876300Y-48625000D03*
X37036300Y-48625000D03*
X83399371Y-101238995D03*
X73295029Y-102301005D03*
D12*
X78347200Y-101770000D03*
X112206600Y-54064000D03*
D13*
X117237162Y-54770999D03*
X107176038Y-53357001D03*
X264471375Y-50031363D03*
D12*
X269539000Y-49677000D03*
D13*
X274606625Y-49322637D03*
D12*
X136645800Y-98130000D03*
D13*
X141725800Y-98130000D03*
X131565800Y-98130000D03*
X74637225Y-30261363D03*
X64501975Y-29552637D03*
D12*
X69569600Y-29907000D03*
X224919400Y-33970000D03*
D13*
X229949962Y-33263001D03*
X219888838Y-34676999D03*
D12*
X50066600Y-28890000D03*
D13*
X55143505Y-29067289D03*
X44989695Y-28712711D03*
X188285325Y-78530637D03*
X178150075Y-79239363D03*
D12*
X183217700Y-78885000D03*
X147249500Y-38057000D03*
D13*
X142181875Y-37702637D03*
X152317125Y-38411363D03*
M02*
