G04 #@! TF.GenerationSoftware,KiCad,Pcbnew,(6.0.10)*
G04 #@! TF.CreationDate,2023-05-22T23:46:38+09:00*
G04 #@! TF.ProjectId,PARALLAX,50415241-4c4c-4415-982e-6b696361645f,rev?*
G04 #@! TF.SameCoordinates,Original*
G04 #@! TF.FileFunction,Soldermask,Bot*
G04 #@! TF.FilePolarity,Negative*
%FSLAX46Y46*%
G04 Gerber Fmt 4.6, Leading zero omitted, Abs format (unit mm)*
G04 Created by KiCad (PCBNEW (6.0.10)) date 2023-05-22 23:46:38*
%MOMM*%
%LPD*%
G01*
G04 APERTURE LIST*
G04 Aperture macros list*
%AMRoundRect*
0 Rectangle with rounded corners*
0 $1 Rounding radius*
0 $2 $3 $4 $5 $6 $7 $8 $9 X,Y pos of 4 corners*
0 Add a 4 corners polygon primitive as box body*
4,1,4,$2,$3,$4,$5,$6,$7,$8,$9,$2,$3,0*
0 Add four circle primitives for the rounded corners*
1,1,$1+$1,$2,$3*
1,1,$1+$1,$4,$5*
1,1,$1+$1,$6,$7*
1,1,$1+$1,$8,$9*
0 Add four rect primitives between the rounded corners*
20,1,$1+$1,$2,$3,$4,$5,0*
20,1,$1+$1,$4,$5,$6,$7,0*
20,1,$1+$1,$6,$7,$8,$9,0*
20,1,$1+$1,$8,$9,$2,$3,0*%
%AMRotRect*
0 Rectangle, with rotation*
0 The origin of the aperture is its center*
0 $1 length*
0 $2 width*
0 $3 Rotation angle, in degrees counterclockwise*
0 Add horizontal line*
21,1,$1,$2,0,0,$3*%
%AMFreePoly0*
4,1,22,1.150000,1.217000,1.242000,1.125000,1.275000,1.000000,1.275000,-0.378000,1.255000,-0.477000,1.196000,-0.560000,1.110000,-0.613000,0.807000,-0.752000,0.530000,-0.939000,0.287000,-1.167000,0.203000,-1.228000,0.102000,-1.250000,-1.025000,-1.250000,-1.150000,-1.217000,-1.242000,-1.125000,-1.275000,-1.000000,-1.275000,1.000000,-1.242000,1.125000,-1.150000,1.217000,-1.025000,1.250000,
1.025000,1.250000,1.150000,1.217000,1.150000,1.217000,$1*%
G04 Aperture macros list end*
%ADD10RotRect,2.200000X0.820000X184.000000*%
%ADD11RotRect,1.300000X0.950000X82.000000*%
%ADD12C,3.000000*%
%ADD13C,4.000000*%
%ADD14C,2.000000*%
%ADD15RotRect,3.300000X3.000000X174.000000*%
%ADD16RotRect,1.300000X0.950000X276.000000*%
%ADD17R,0.950000X1.300000*%
%ADD18O,1.500000X1.500000*%
%ADD19RotRect,3.300000X3.000000X188.000000*%
%ADD20R,3.300000X3.000000*%
%ADD21RotRect,1.300000X0.950000X84.000000*%
%ADD22RotRect,1.300000X0.950000X86.000000*%
%ADD23RotRect,3.300000X3.000000X186.000000*%
%ADD24RotRect,3.300000X3.000000X172.000000*%
%ADD25RotRect,1.300000X0.950000X278.000000*%
%ADD26RotRect,3.300000X3.000000X184.000000*%
%ADD27RotRect,2.200000X0.820000X354.000000*%
%ADD28C,1.524000*%
%ADD29R,2.500000X3.200000*%
%ADD30RotRect,1.300000X0.950000X274.000000*%
%ADD31RotRect,3.300000X3.000000X176.000000*%
%ADD32RotRect,2.200000X0.820000X174.000000*%
%ADD33RotRect,2.200000X0.820000X186.000000*%
%ADD34RotRect,3.300000X3.000000X182.000000*%
%ADD35RotRect,1.300000X0.950000X96.000000*%
%ADD36RotRect,2.200000X0.820000X356.000000*%
%ADD37RotRect,1.300000X0.950000X88.000000*%
%ADD38RotRect,2.200000X0.820000X6.000000*%
%ADD39RotRect,2.200000X0.820000X4.000000*%
%ADD40RotRect,2.200000X0.820000X358.000000*%
%ADD41O,1.600000X1.300000*%
%ADD42RoundRect,0.249600X-0.550400X-1.300400X0.550400X-1.300400X0.550400X1.300400X-0.550400X1.300400X0*%
%ADD43RoundRect,0.249600X-0.550400X-0.900400X0.550400X-0.900400X0.550400X0.900400X-0.550400X0.900400X0*%
%ADD44C,3.100000*%
%ADD45RoundRect,0.250000X-1.025000X-1.000000X1.025000X-1.000000X1.025000X1.000000X-1.025000X1.000000X0*%
%ADD46FreePoly0,0.000000*%
%ADD47RotRect,3.300000X3.000000X178.000000*%
%ADD48RotRect,2.200000X0.820000X2.000000*%
%ADD49RotRect,1.300000X0.950000X272.000000*%
%ADD50RotRect,2.200000X0.820000X352.000000*%
%ADD51RotRect,2.200000X0.820000X182.000000*%
%ADD52R,2.200000X0.820000*%
%ADD53RotRect,2.200000X0.820000X8.000000*%
%ADD54RotRect,1.300000X0.950000X264.000000*%
%ADD55RotRect,2.200000X0.820000X176.000000*%
%ADD56RotRect,2.200000X0.820000X172.000000*%
%ADD57RotRect,2.200000X0.820000X188.000000*%
%ADD58RotRect,1.300000X0.950000X94.000000*%
%ADD59RotRect,2.200000X0.820000X178.000000*%
%ADD60RotRect,1.300000X0.950000X266.000000*%
G04 APERTURE END LIST*
D10*
X189600404Y-64490655D03*
X195486031Y-64079091D03*
X195381396Y-62582745D03*
X189495769Y-62994309D03*
D11*
X119657768Y-56956326D03*
X120151832Y-53440874D03*
D12*
X134648090Y-51653331D03*
D13*
X131591000Y-56440000D03*
D14*
X136643171Y-56971005D03*
X126538829Y-55908995D03*
D12*
X128067374Y-53515661D03*
D15*
X124451495Y-53095396D03*
X138242496Y-51990898D03*
D16*
X251833262Y-28998124D03*
X252204338Y-32528676D03*
D17*
X315344900Y-26753300D03*
X315344900Y-30303300D03*
D18*
X152347700Y-20446700D03*
X154847700Y-20446700D03*
X149847700Y-20446700D03*
D12*
X226573179Y-51771969D03*
D14*
X225669038Y-54463999D03*
D12*
X232507882Y-48372939D03*
D14*
X235730162Y-53050001D03*
D13*
X230699600Y-53757000D03*
D19*
X222963036Y-52238948D03*
X236077183Y-47830913D03*
D14*
X35620000Y-28550000D03*
D13*
X30540000Y-28550000D03*
D14*
X25460000Y-28550000D03*
D12*
X33080000Y-23470000D03*
X26730000Y-26010000D03*
D20*
X23090000Y-25970000D03*
X36690000Y-23430000D03*
D21*
X147685162Y-79868876D03*
X148056238Y-76338324D03*
D22*
X89510682Y-73122476D03*
X89758318Y-69581124D03*
D14*
X206263229Y-56666505D03*
D12*
X207260769Y-54007668D03*
X213310481Y-50817826D03*
D14*
X216367571Y-55604495D03*
D13*
X211315400Y-56135500D03*
D23*
X203636528Y-54348371D03*
X216896524Y-50400698D03*
D12*
X38258800Y-64280000D03*
D14*
X40798800Y-69360000D03*
D12*
X31908800Y-66820000D03*
D13*
X35718800Y-69360000D03*
D14*
X30638800Y-69360000D03*
D20*
X28268800Y-66780000D03*
X41868800Y-64240000D03*
D12*
X104989778Y-30939470D03*
D13*
X108409200Y-33985000D03*
D14*
X103378638Y-33278001D03*
X113439762Y-34691999D03*
D12*
X111631480Y-29307938D03*
D24*
X101390769Y-30393269D03*
X115211915Y-29770742D03*
D11*
X128103768Y-77713426D03*
X128597832Y-74197974D03*
D25*
X238231468Y-50960074D03*
X238725532Y-54475526D03*
D12*
X259781000Y-27621959D03*
D14*
X268826525Y-29535637D03*
D13*
X263758900Y-29890000D03*
D12*
X265938350Y-24645193D03*
D14*
X258691275Y-30244363D03*
D26*
X256147076Y-27835970D03*
X269536766Y-24353470D03*
D27*
X142767336Y-82464568D03*
X136899656Y-81847850D03*
X136742864Y-83339632D03*
X142610544Y-83956350D03*
D12*
X182102100Y-35781959D03*
D14*
X191147625Y-37695637D03*
D13*
X186080000Y-38050000D03*
D12*
X188259450Y-32805193D03*
D14*
X181012375Y-38404363D03*
D26*
X178468176Y-35995970D03*
X191857866Y-32513470D03*
D28*
X51247700Y-18675300D03*
X48707700Y-18675300D03*
X46167700Y-18675300D03*
X43627700Y-18675300D03*
X41087700Y-18675300D03*
X38547700Y-18675300D03*
X36007700Y-18675300D03*
X33467700Y-18675300D03*
X30927700Y-18675300D03*
X28387700Y-18675300D03*
X25847700Y-18675300D03*
X23307700Y-18675300D03*
X23307700Y-33895300D03*
X25847700Y-33895300D03*
X28387700Y-33895300D03*
X30927700Y-33895300D03*
X33467700Y-33895300D03*
X36007700Y-33895300D03*
X38547700Y-33895300D03*
X41087700Y-33895300D03*
X43627700Y-33895300D03*
X46167700Y-33895300D03*
X48707700Y-33895300D03*
X51247700Y-33895300D03*
X53787700Y-33895300D03*
X53787700Y-18675300D03*
D14*
X38218800Y-92512500D03*
X33218800Y-92512500D03*
X35718800Y-92512500D03*
D29*
X41318800Y-100012500D03*
X30118800Y-100012500D03*
D14*
X33218800Y-107012500D03*
X38218800Y-107012500D03*
D30*
X199500282Y-55595424D03*
X199747918Y-59136776D03*
D12*
X231746462Y-96520415D03*
D13*
X235370000Y-99320000D03*
D14*
X230302375Y-98965637D03*
X240437625Y-99674363D03*
D12*
X238258176Y-94429556D03*
D31*
X228118119Y-96226599D03*
X241862172Y-94641474D03*
D17*
X299190900Y-103989700D03*
X299190900Y-107539700D03*
D20*
X313700700Y-23408000D03*
X300100700Y-25948000D03*
D13*
X307550700Y-28528000D03*
D14*
X302470700Y-28528000D03*
X312630700Y-28528000D03*
D12*
X303740700Y-25988000D03*
X310090700Y-23448000D03*
D21*
X100391862Y-54370676D03*
X100762938Y-50840124D03*
D12*
X313490000Y-43235000D03*
D14*
X305870000Y-48315000D03*
D12*
X307140000Y-45775000D03*
D14*
X316030000Y-48315000D03*
D13*
X310950000Y-48315000D03*
D20*
X303500000Y-45735000D03*
X317100000Y-43195000D03*
D14*
X255135671Y-50844995D03*
X245031329Y-51907005D03*
D12*
X246028869Y-49248168D03*
D13*
X250083500Y-51376000D03*
D12*
X252078581Y-46058326D03*
D23*
X242404628Y-49588871D03*
X255664624Y-45641198D03*
D32*
X89442664Y-57842932D03*
X95310344Y-58459650D03*
X95467136Y-56967868D03*
X89599456Y-56351150D03*
D14*
X68299375Y-49630637D03*
D12*
X69743462Y-47185415D03*
X76255176Y-45094556D03*
D13*
X73367000Y-49985000D03*
D14*
X78434625Y-50339363D03*
D31*
X66115119Y-46891599D03*
X79859172Y-45306474D03*
D33*
X76314356Y-108497250D03*
X82182036Y-107880532D03*
X82025244Y-106388750D03*
X76157564Y-107005468D03*
D17*
X314862800Y-67628300D03*
X314862800Y-71178300D03*
D13*
X283261500Y-28865000D03*
D14*
X288338405Y-28687711D03*
X278184595Y-29042289D03*
D12*
X279365176Y-26459514D03*
X285622663Y-23699450D03*
D34*
X275725998Y-26546573D03*
X289229068Y-23533487D03*
D35*
X86272538Y-102718176D03*
X85901462Y-99187624D03*
D36*
X72398831Y-35095209D03*
X66513204Y-34683645D03*
X66408569Y-36179991D03*
X72294196Y-36591555D03*
D14*
X94077371Y-32136005D03*
D13*
X89025200Y-31605000D03*
D14*
X83973029Y-31073995D03*
D12*
X85501574Y-28680661D03*
X92082290Y-26818331D03*
D15*
X81885695Y-28260396D03*
X95676696Y-27155898D03*
D37*
X70071353Y-71806319D03*
X70195247Y-68258481D03*
D12*
X117312078Y-71754470D03*
D13*
X120731500Y-74800000D03*
D14*
X125762062Y-75506999D03*
D12*
X123953780Y-70122938D03*
D14*
X115700938Y-74093001D03*
D24*
X113713069Y-71208269D03*
X127534215Y-70585742D03*
D14*
X132845971Y-36891005D03*
D12*
X130850890Y-31573331D03*
D14*
X122741629Y-35828995D03*
D12*
X124270174Y-33435661D03*
D13*
X127793800Y-36360000D03*
D15*
X120654295Y-33015396D03*
X134445296Y-31910898D03*
D13*
X206021200Y-98130000D03*
D12*
X202211200Y-95590000D03*
D14*
X200941200Y-98130000D03*
D12*
X208561200Y-93050000D03*
D14*
X211101200Y-98130000D03*
D20*
X198571200Y-95550000D03*
X212171200Y-93010000D03*
D17*
X39743700Y-50395700D03*
X39743700Y-46845700D03*
D11*
X115841568Y-36825026D03*
X116335632Y-33309574D03*
D22*
X158690082Y-60524776D03*
X158937718Y-56983424D03*
X77212382Y-32301176D03*
X77460018Y-28759824D03*
D32*
X232183864Y-105748832D03*
X238051544Y-106365550D03*
X238208336Y-104873768D03*
X232340656Y-104257050D03*
D22*
X81052982Y-52291876D03*
X81300618Y-48750524D03*
D37*
X61576453Y-50985319D03*
X61700347Y-47437481D03*
D38*
X189532544Y-42444050D03*
X183664864Y-43060768D03*
X183821656Y-44552550D03*
X189689336Y-43935832D03*
D12*
X237386469Y-70297168D03*
D13*
X241441100Y-72425000D03*
D14*
X236388929Y-72956005D03*
X246493271Y-71893995D03*
D12*
X243436181Y-67107326D03*
D23*
X233762228Y-70637871D03*
X247022224Y-66690198D03*
D30*
X268594182Y-68550224D03*
X268841818Y-72091576D03*
D12*
X187882200Y-55568959D03*
D14*
X196927725Y-57482637D03*
D12*
X194039550Y-52592193D03*
D13*
X191860100Y-57837000D03*
D14*
X186792475Y-58191363D03*
D26*
X184248276Y-55782970D03*
X197637966Y-52300470D03*
D14*
X207725271Y-76653995D03*
D12*
X198618469Y-75057168D03*
D13*
X202673100Y-77185000D03*
D14*
X197620929Y-77716005D03*
D12*
X204668181Y-71867326D03*
D23*
X194994228Y-75397871D03*
X208254224Y-71450198D03*
D17*
X144456400Y-99910500D03*
X144456400Y-96360500D03*
D12*
X78268462Y-67920415D03*
X84780176Y-65829556D03*
D13*
X81892000Y-70720000D03*
D14*
X86959625Y-71074363D03*
X76824375Y-70365637D03*
D31*
X74640119Y-67626599D03*
X88384172Y-66041474D03*
D10*
X105029904Y-105967755D03*
X110915531Y-105556191D03*
X110810896Y-104059845D03*
X104925269Y-104471409D03*
X267280304Y-56329255D03*
X273165931Y-55917691D03*
X273061296Y-54421345D03*
X267175669Y-54832909D03*
D32*
X128210464Y-62594932D03*
X134078144Y-63211650D03*
X134234936Y-61719868D03*
X128367256Y-61103150D03*
D13*
X101347400Y-72420000D03*
D12*
X97823774Y-69495661D03*
X104404490Y-67633331D03*
D14*
X106399571Y-72951005D03*
X96295229Y-71888995D03*
D15*
X94207895Y-69075396D03*
X107998896Y-67970898D03*
D39*
X264413296Y-75469645D03*
X258527669Y-75881209D03*
X258632304Y-77377555D03*
X264517931Y-76965991D03*
D12*
X285145776Y-46249514D03*
D13*
X289042100Y-48655000D03*
D12*
X291403263Y-43489450D03*
D14*
X283965195Y-48832289D03*
X294119005Y-48477711D03*
D34*
X281506598Y-46336573D03*
X295009668Y-43323487D03*
D17*
X213816500Y-96382300D03*
X213816500Y-99932300D03*
D40*
X65391678Y-74786911D03*
X59495271Y-74581003D03*
X59442922Y-76080089D03*
X65339329Y-76285997D03*
D12*
X167640000Y-56499900D03*
X173990000Y-53959900D03*
D13*
X171450000Y-59039900D03*
D41*
X173950000Y-51539900D03*
X168950000Y-51539900D03*
X171450000Y-51539900D03*
D42*
X177800000Y-59039900D03*
D43*
X165100000Y-59439900D03*
D44*
X165900000Y-59039900D03*
X177000000Y-59039900D03*
D45*
X177540000Y-53959900D03*
D41*
X173950000Y-66039900D03*
D46*
X164090000Y-56499900D03*
D41*
X168950000Y-66039900D03*
D14*
X191368750Y-20850700D03*
X184868750Y-20850700D03*
D13*
X307070000Y-69360000D03*
D14*
X301990000Y-69360000D03*
D12*
X303260000Y-66820000D03*
X309610000Y-64280000D03*
D14*
X312150000Y-69360000D03*
D20*
X299620000Y-66780000D03*
X313220000Y-64240000D03*
D25*
X232484968Y-31203874D03*
X232979032Y-34719326D03*
D30*
X271394982Y-27615524D03*
X271642618Y-31156876D03*
D14*
X239251329Y-32121005D03*
D12*
X246298581Y-26272326D03*
D13*
X244303500Y-31590000D03*
D12*
X240248869Y-29462168D03*
D14*
X249355671Y-31058995D03*
D23*
X236624628Y-29802871D03*
X249884624Y-25855198D03*
D12*
X207530481Y-31032326D03*
D14*
X200483229Y-36881005D03*
D12*
X201480769Y-34222168D03*
D13*
X205535400Y-36350000D03*
D14*
X210587571Y-35818995D03*
D23*
X197856528Y-34562871D03*
X211116524Y-30615198D03*
D27*
X130447236Y-41651168D03*
X124579556Y-41034450D03*
X124422764Y-42526232D03*
X130290444Y-43142950D03*
D14*
X48787195Y-48787711D03*
D13*
X53864100Y-48965000D03*
D14*
X58941005Y-49142289D03*
D12*
X56579842Y-43976739D03*
X50145066Y-46293580D03*
D47*
X46508679Y-46126570D03*
X60189039Y-44062751D03*
D13*
X62389100Y-69700000D03*
D14*
X57312195Y-69522711D03*
D12*
X65104842Y-64711739D03*
X58670066Y-67028580D03*
D14*
X67466005Y-69877289D03*
D47*
X55033679Y-66861570D03*
X68714039Y-64797751D03*
D36*
X84713031Y-75908909D03*
X78827404Y-75497345D03*
X78722769Y-76993691D03*
X84608396Y-77405255D03*
D12*
X147423462Y-55335415D03*
D13*
X151047000Y-58135000D03*
D14*
X145979375Y-57780637D03*
D12*
X153935176Y-53244556D03*
D14*
X156114625Y-58489363D03*
D31*
X143795119Y-55041599D03*
X157539172Y-53456474D03*
D14*
X112364625Y-98965637D03*
D12*
X109476450Y-94075193D03*
D14*
X102229375Y-99674363D03*
D12*
X103319100Y-97051959D03*
D13*
X107297000Y-99320000D03*
D26*
X99685176Y-97265970D03*
X113074866Y-93783470D03*
D14*
X87770229Y-51154995D03*
X97874571Y-52217005D03*
D13*
X92822400Y-51686000D03*
D12*
X89298774Y-48761661D03*
X95879490Y-46899331D03*
D15*
X85682895Y-48341396D03*
X99473896Y-47236898D03*
D13*
X222057100Y-74805000D03*
D14*
X227087662Y-74098001D03*
X217026538Y-75511999D03*
D12*
X217930679Y-72819969D03*
X223865382Y-69420939D03*
D19*
X214320536Y-73286948D03*
X227434683Y-68878913D03*
D14*
X309681300Y-92512500D03*
X304681300Y-92512500D03*
X307181300Y-92512500D03*
D29*
X301581300Y-100012500D03*
X312781300Y-100012500D03*
D14*
X304681300Y-107012500D03*
X309681300Y-107012500D03*
D48*
X286614129Y-33729103D03*
X280717722Y-33935011D03*
X280770071Y-35434097D03*
X286666478Y-35228189D03*
D13*
X264319800Y-101770000D03*
D14*
X259267629Y-101238995D03*
D12*
X260796174Y-98845661D03*
D14*
X269371971Y-102301005D03*
D12*
X267376890Y-96983331D03*
D15*
X257180295Y-98425396D03*
X270971296Y-97320898D03*
D38*
X206342344Y-81807650D03*
X200474664Y-82424368D03*
X200631456Y-83916150D03*
X206499136Y-83299432D03*
D21*
X139109362Y-59071276D03*
X139480438Y-55540724D03*
D12*
X276503276Y-67297514D03*
D13*
X280399600Y-69703000D03*
D14*
X275322695Y-69880289D03*
X285476505Y-69525711D03*
D12*
X282760763Y-64537450D03*
D34*
X272864098Y-67384573D03*
X286367168Y-64371487D03*
D14*
X135063829Y-76646995D03*
D12*
X143173090Y-72391331D03*
D13*
X140116000Y-77178000D03*
D12*
X136592374Y-74253661D03*
D14*
X145168171Y-77709005D03*
D15*
X132976495Y-73833396D03*
X146767496Y-72728898D03*
D14*
X164639325Y-79229363D03*
D13*
X159571700Y-78875000D03*
D12*
X155948162Y-76075415D03*
X162459876Y-73984556D03*
D14*
X154504075Y-78520637D03*
D31*
X152319819Y-75781599D03*
X166063872Y-74196474D03*
D49*
X288128853Y-67643781D03*
X288252747Y-71191619D03*
D50*
X123187671Y-80174560D03*
X117345089Y-79353438D03*
X117136329Y-80838840D03*
X122978911Y-81659962D03*
D51*
X286547471Y-55223097D03*
X292443878Y-55017189D03*
X292391529Y-53518103D03*
X286495122Y-53724011D03*
D52*
X53130800Y-36290900D03*
X47230800Y-36290900D03*
X47230800Y-37790900D03*
X53130800Y-37790900D03*
D12*
X256918700Y-68457959D03*
D14*
X265964225Y-70371637D03*
D13*
X260896600Y-70726000D03*
D14*
X255828975Y-71080363D03*
D12*
X263076050Y-65481193D03*
D26*
X253284776Y-68671970D03*
X266674466Y-65189470D03*
D17*
X43666800Y-107531400D03*
X43666800Y-103981400D03*
D53*
X225891311Y-79295538D03*
X220048729Y-80116660D03*
X220257489Y-81602062D03*
X226100071Y-80780940D03*
D25*
X229629468Y-72088674D03*
X230123532Y-75604126D03*
D54*
X272248938Y-100905624D03*
X271877862Y-104436176D03*
D21*
X96622062Y-34235876D03*
X96993138Y-30705324D03*
D52*
X133924200Y-104606600D03*
X139824200Y-104606600D03*
X139824200Y-103106600D03*
X133924200Y-103106600D03*
D55*
X147877569Y-64411191D03*
X153763196Y-64822755D03*
X153867831Y-63326409D03*
X147982204Y-62914845D03*
D12*
X34496300Y-43545000D03*
D13*
X31956300Y-48625000D03*
D12*
X28146300Y-46085000D03*
D14*
X26876300Y-48625000D03*
X37036300Y-48625000D03*
D20*
X24506300Y-46045000D03*
X38106300Y-43505000D03*
D36*
X150079731Y-43248609D03*
X144194104Y-42837045D03*
X144089469Y-44333391D03*
X149975096Y-44744955D03*
D49*
X296778853Y-46750281D03*
X296902747Y-50298119D03*
D14*
X83399371Y-101238995D03*
D12*
X74292569Y-99642168D03*
D14*
X73295029Y-102301005D03*
D12*
X80342281Y-96452326D03*
D13*
X78347200Y-101770000D03*
D23*
X70668328Y-99982871D03*
X83928324Y-96035198D03*
D16*
X257667362Y-48808024D03*
X258038438Y-52338576D03*
D22*
X154962082Y-40400776D03*
X155209718Y-36859424D03*
D17*
X318746300Y-46571500D03*
X318746300Y-50121500D03*
D56*
X108619629Y-60102240D03*
X114462211Y-60923362D03*
X114670971Y-59437960D03*
X108828389Y-58616838D03*
D53*
X209141711Y-40626438D03*
X203299129Y-41447560D03*
X203507889Y-42932962D03*
X209350471Y-42111840D03*
D36*
X162400831Y-84057409D03*
X156515204Y-83645845D03*
X156410569Y-85142191D03*
X162296196Y-85553755D03*
D27*
X103999936Y-77708068D03*
X98132256Y-77091350D03*
X97975464Y-78583132D03*
X103843144Y-79199850D03*
D13*
X112206600Y-54064000D03*
D12*
X108787178Y-51018470D03*
D14*
X117237162Y-54770999D03*
D12*
X115428880Y-49386938D03*
D14*
X107176038Y-53357001D03*
D24*
X105188169Y-50472269D03*
X119009315Y-49849742D03*
D17*
X43530300Y-71163400D03*
X43530300Y-67613400D03*
D32*
X260936764Y-107926132D03*
X266804444Y-108542850D03*
X266961236Y-107051068D03*
X261093556Y-106434350D03*
D33*
X209281256Y-62859050D03*
X215148936Y-62242332D03*
X214992144Y-60750550D03*
X209124464Y-61367268D03*
D38*
X245120144Y-77042650D03*
X239252464Y-77659368D03*
X239409256Y-79151150D03*
X245276936Y-78534432D03*
D48*
X283751629Y-74569803D03*
X277855222Y-74775711D03*
X277907571Y-76274797D03*
X283803978Y-76068889D03*
D14*
X264471375Y-50031363D03*
D12*
X271718450Y-44432193D03*
D13*
X269539000Y-49677000D03*
D14*
X274606625Y-49322637D03*
D12*
X265561100Y-47408959D03*
D26*
X261927176Y-47622970D03*
X275316866Y-44140470D03*
D57*
X228906589Y-60551862D03*
X234749171Y-59730740D03*
X234540411Y-58245338D03*
X228697829Y-59066460D03*
D53*
X228754211Y-38452938D03*
X222911629Y-39274060D03*
X223120389Y-40759462D03*
X228962971Y-39938340D03*
D16*
X210302162Y-74641524D03*
X210673238Y-78172076D03*
D50*
X110869871Y-39357360D03*
X105027289Y-38536238D03*
X104818529Y-40021640D03*
X110661111Y-40842762D03*
D52*
X203304300Y-104610500D03*
X209204300Y-104610500D03*
X209204300Y-103110500D03*
X203304300Y-103110500D03*
D22*
X167200182Y-81257476D03*
X167447818Y-77716124D03*
D37*
X57820153Y-30849519D03*
X57944047Y-27301681D03*
D38*
X247989744Y-36211650D03*
X242122064Y-36828368D03*
X242278856Y-38320150D03*
X248146536Y-37703432D03*
D13*
X136645800Y-98130000D03*
D14*
X141725800Y-98130000D03*
D12*
X139185800Y-93050000D03*
X132835800Y-95590000D03*
D14*
X131565800Y-98130000D03*
D20*
X129195800Y-95550000D03*
X142795800Y-93010000D03*
D21*
X135386862Y-38981276D03*
X135757938Y-35450724D03*
D12*
X72457776Y-25016556D03*
D14*
X74637225Y-30261363D03*
D12*
X65946062Y-27107415D03*
D14*
X64501975Y-29552637D03*
D13*
X69569600Y-29907000D03*
D31*
X62317719Y-26813599D03*
X76061772Y-25228474D03*
D17*
X179354000Y-65121000D03*
X179354000Y-61571000D03*
D27*
X91667036Y-36896968D03*
X85799356Y-36280250D03*
X85642564Y-37772032D03*
X91510244Y-38388750D03*
D17*
X38351800Y-30354000D03*
X38351800Y-26804000D03*
D39*
X267278796Y-34630645D03*
X261393169Y-35042209D03*
X261497804Y-36538555D03*
X267383431Y-36126991D03*
D30*
X190866382Y-76629524D03*
X191114018Y-80170876D03*
D58*
X115195918Y-100598776D03*
X114948282Y-97057424D03*
D19*
X230296983Y-28043913D03*
X217182836Y-32451948D03*
D12*
X220792979Y-31984969D03*
X226727682Y-28585939D03*
D13*
X224919400Y-33970000D03*
D14*
X229949962Y-33263001D03*
X219888838Y-34676999D03*
D21*
X108979562Y-75081376D03*
X109350638Y-71550824D03*
D55*
X70193669Y-56259391D03*
X76079296Y-56670955D03*
X76183931Y-55174609D03*
X70298304Y-54763045D03*
D59*
X50922422Y-55345889D03*
X56818829Y-55551797D03*
X56871178Y-54052711D03*
X50974771Y-53846803D03*
D49*
X290938453Y-26952881D03*
X291062347Y-30500719D03*
D16*
X213090562Y-33778424D03*
X213461638Y-37308976D03*
D30*
X277211382Y-47425524D03*
X277459018Y-50966876D03*
D33*
X248046756Y-58103350D03*
X253914436Y-57486632D03*
X253757644Y-55994850D03*
X247889964Y-56611568D03*
D13*
X50066600Y-28890000D03*
D14*
X55143505Y-29067289D03*
D12*
X52782342Y-23901739D03*
X46347566Y-26218580D03*
D14*
X44989695Y-28712711D03*
D47*
X42711179Y-26051570D03*
X56391539Y-23987751D03*
D30*
X193776782Y-35787624D03*
X194024418Y-39328976D03*
D14*
X188285325Y-78530637D03*
X178150075Y-79239363D03*
D12*
X179239800Y-76616959D03*
X185397150Y-73640193D03*
D13*
X183217700Y-78885000D03*
D26*
X175605876Y-76830970D03*
X188995566Y-73348470D03*
D60*
X243259618Y-98262324D03*
X243011982Y-101803676D03*
D16*
X218974162Y-53636524D03*
X219345238Y-57167076D03*
X248997662Y-69882024D03*
X249368738Y-73412576D03*
D39*
X186727596Y-83623345D03*
X180841969Y-84034909D03*
X180946604Y-85531255D03*
X186832231Y-85119691D03*
D13*
X147249500Y-38057000D03*
D12*
X143625962Y-35257415D03*
D14*
X142181875Y-37702637D03*
X152317125Y-38411363D03*
D12*
X150137676Y-33166556D03*
D31*
X139997619Y-34963599D03*
X153741672Y-33378474D03*
M02*
