G04 #@! TF.GenerationSoftware,KiCad,Pcbnew,(6.0.10)*
G04 #@! TF.CreationDate,2023-05-22T23:46:38+09:00*
G04 #@! TF.ProjectId,PARALLAX,50415241-4c4c-4415-982e-6b696361645f,rev?*
G04 #@! TF.SameCoordinates,Original*
G04 #@! TF.FileFunction,Profile,NP*
%FSLAX46Y46*%
G04 Gerber Fmt 4.6, Leading zero omitted, Abs format (unit mm)*
G04 Created by KiCad (PCBNEW (6.0.10)) date 2023-05-22 23:46:38*
%MOMM*%
%LPD*%
G01*
G04 APERTURE LIST*
G04 #@! TA.AperFunction,Profile*
%ADD10C,0.100000*%
G04 #@! TD*
G04 #@! TA.AperFunction,Profile*
%ADD11C,0.120000*%
G04 #@! TD*
G04 APERTURE END LIST*
D10*
X320625000Y-17250000D02*
X22275000Y-17250000D01*
X323625000Y-20250000D02*
G75*
G03*
X320625000Y-17250000I-3000000J0D01*
G01*
X19275000Y-20250000D02*
X19275000Y-113050000D01*
X320625000Y-116050000D02*
G75*
G03*
X323625000Y-113050000I0J3000000D01*
G01*
X22275000Y-17250000D02*
G75*
G03*
X19275000Y-20250000I0J-3000000D01*
G01*
X323625000Y-20250000D02*
X323625000Y-113050000D01*
X22275000Y-116050000D02*
X320625000Y-116050000D01*
X19275000Y-113050000D02*
G75*
G03*
X22275000Y-116050000I3000000J0D01*
G01*
D11*
X190633553Y-62062671D02*
X194125027Y-61818524D01*
X194348247Y-65010729D02*
X190856773Y-65254876D01*
X190856773Y-65254876D02*
X190633553Y-62062671D01*
X194125027Y-61818524D02*
X194348247Y-65010729D01*
X138181932Y-81127940D02*
X141662759Y-81493790D01*
X137847441Y-84310410D02*
X138181932Y-81127940D01*
X141662759Y-81493790D02*
X141328268Y-84676260D01*
X141328268Y-84676260D02*
X137847441Y-84310410D01*
X94362559Y-55997090D02*
X94028068Y-59179560D01*
X90881732Y-55631240D02*
X94362559Y-55997090D01*
X94028068Y-59179560D02*
X90547241Y-58813710D01*
X90547241Y-58813710D02*
X90881732Y-55631240D01*
X77596632Y-109217160D02*
X77262141Y-106034690D01*
X80742968Y-105668840D02*
X81077459Y-108851310D01*
X81077459Y-108851310D02*
X77596632Y-109217160D01*
X77262141Y-106034690D02*
X80742968Y-105668840D01*
X71261047Y-34163571D02*
X71037827Y-37355776D01*
X67769573Y-33919424D02*
X71261047Y-34163571D01*
X67546353Y-37111629D02*
X67769573Y-33919424D01*
X71037827Y-37355776D02*
X67546353Y-37111629D01*
X233288441Y-106719610D02*
X233622932Y-103537140D01*
X237103759Y-103902990D02*
X236769268Y-107085460D01*
X233622932Y-103537140D02*
X237103759Y-103902990D01*
X236769268Y-107085460D02*
X233288441Y-106719610D01*
X188584759Y-44906610D02*
X185103932Y-45272460D01*
X188250268Y-41724140D02*
X188584759Y-44906610D01*
X184769441Y-42089990D02*
X188250268Y-41724140D01*
X185103932Y-45272460D02*
X184769441Y-42089990D01*
X109777747Y-106487829D02*
X106286273Y-106731976D01*
X106286273Y-106731976D02*
X106063053Y-103539771D01*
X106063053Y-103539771D02*
X109554527Y-103295624D01*
X109554527Y-103295624D02*
X109777747Y-106487829D01*
X268536673Y-57093476D02*
X268313453Y-53901271D01*
X272028147Y-56849329D02*
X268536673Y-57093476D01*
X271804927Y-53657124D02*
X272028147Y-56849329D01*
X268313453Y-53901271D02*
X271804927Y-53657124D01*
X129315041Y-63565710D02*
X129649532Y-60383240D01*
X133130359Y-60749090D02*
X132795868Y-63931560D01*
X132795868Y-63931560D02*
X129315041Y-63565710D01*
X129649532Y-60383240D02*
X133130359Y-60749090D01*
X259665453Y-74949571D02*
X263156927Y-74705424D01*
X259888673Y-78141776D02*
X259665453Y-74949571D01*
X263380147Y-77897629D02*
X259888673Y-78141776D01*
X263156927Y-74705424D02*
X263380147Y-77897629D01*
X60612527Y-76971451D02*
X60724205Y-73773401D01*
X64110395Y-77093599D02*
X60612527Y-76971451D01*
X60724205Y-73773401D02*
X64222073Y-73895549D01*
X64222073Y-73895549D02*
X64110395Y-77093599D01*
X125527341Y-43497010D02*
X125861832Y-40314540D01*
X129008168Y-43862860D02*
X125527341Y-43497010D01*
X129342659Y-40680390D02*
X129008168Y-43862860D01*
X125861832Y-40314540D02*
X129342659Y-40680390D01*
X80083773Y-74733124D02*
X83575247Y-74977271D01*
X83575247Y-74977271D02*
X83352027Y-78169476D01*
X79860553Y-77925329D02*
X80083773Y-74733124D01*
X83352027Y-78169476D02*
X79860553Y-77925329D01*
X285385195Y-32921501D02*
X285496873Y-36119551D01*
X281999005Y-36241699D02*
X281887327Y-33043649D01*
X281887327Y-33043649D02*
X285385195Y-32921501D01*
X285496873Y-36119551D02*
X281999005Y-36241699D01*
X205060068Y-81087740D02*
X205394559Y-84270210D01*
X201579241Y-81453590D02*
X205060068Y-81087740D01*
X205394559Y-84270210D02*
X201913732Y-84636060D01*
X201913732Y-84636060D02*
X201579241Y-81453590D01*
X118651708Y-78678718D02*
X122117646Y-79165824D01*
X118206354Y-81847576D02*
X118651708Y-78678718D01*
X122117646Y-79165824D02*
X121672292Y-82334682D01*
X121672292Y-82334682D02*
X118206354Y-81847576D01*
X291274273Y-55908551D02*
X287776405Y-56030699D01*
X291162595Y-52710501D02*
X291274273Y-55908551D01*
X287664727Y-52832649D02*
X291162595Y-52710501D01*
X287776405Y-56030699D02*
X287664727Y-52832649D01*
X51930800Y-35440900D02*
X51930800Y-38640900D01*
X48430800Y-38640900D02*
X48430800Y-35440900D01*
X48430800Y-35440900D02*
X51930800Y-35440900D01*
X51930800Y-38640900D02*
X48430800Y-38640900D01*
X224584692Y-78620818D02*
X225030046Y-81789676D01*
X221118754Y-79107924D02*
X224584692Y-78620818D01*
X225030046Y-81789676D02*
X221564108Y-82276782D01*
X221564108Y-82276782D02*
X221118754Y-79107924D01*
X135124200Y-102256600D02*
X138624200Y-102256600D01*
X138624200Y-102256600D02*
X138624200Y-105456600D01*
X135124200Y-105456600D02*
X135124200Y-102256600D01*
X138624200Y-105456600D02*
X135124200Y-105456600D01*
X152730047Y-62394771D02*
X152506827Y-65586976D01*
X149015353Y-65342829D02*
X149238573Y-62150624D01*
X152506827Y-65586976D02*
X149015353Y-65342829D01*
X149238573Y-62150624D02*
X152730047Y-62394771D01*
X145450473Y-42072824D02*
X148941947Y-42316971D01*
X148718727Y-45509176D02*
X145227253Y-45265029D01*
X148941947Y-42316971D02*
X148718727Y-45509176D01*
X145227253Y-45265029D02*
X145450473Y-42072824D01*
X110135008Y-57942118D02*
X113600946Y-58429224D01*
X113600946Y-58429224D02*
X113155592Y-61598082D01*
X113155592Y-61598082D02*
X109689654Y-61110976D01*
X109689654Y-61110976D02*
X110135008Y-57942118D01*
X208280446Y-43120576D02*
X204814508Y-43607682D01*
X204369154Y-40438824D02*
X207835092Y-39951718D01*
X204814508Y-43607682D02*
X204369154Y-40438824D01*
X207835092Y-39951718D02*
X208280446Y-43120576D01*
X161263047Y-83125771D02*
X161039827Y-86317976D01*
X157548353Y-86073829D02*
X157771573Y-82881624D01*
X157771573Y-82881624D02*
X161263047Y-83125771D01*
X161039827Y-86317976D02*
X157548353Y-86073829D01*
X102560868Y-79919760D02*
X99080041Y-79553910D01*
X102895359Y-76737290D02*
X102560868Y-79919760D01*
X99080041Y-79553910D02*
X99414532Y-76371440D01*
X99414532Y-76371440D02*
X102895359Y-76737290D01*
X262375832Y-105714440D02*
X265856659Y-106080290D01*
X262041341Y-108896910D02*
X262375832Y-105714440D01*
X265522168Y-109262760D02*
X262041341Y-108896910D01*
X265856659Y-106080290D02*
X265522168Y-109262760D01*
X214044359Y-63213110D02*
X210563532Y-63578960D01*
X213709868Y-60030640D02*
X214044359Y-63213110D01*
X210563532Y-63578960D02*
X210229041Y-60396490D01*
X210229041Y-60396490D02*
X213709868Y-60030640D01*
X240357041Y-76688590D02*
X243837868Y-76322740D01*
X243837868Y-76322740D02*
X244172359Y-79505210D01*
X240691532Y-79871060D02*
X240357041Y-76688590D01*
X244172359Y-79505210D02*
X240691532Y-79871060D01*
X279024827Y-73884349D02*
X282522695Y-73762201D01*
X282634373Y-76960251D02*
X279136505Y-77082399D01*
X282522695Y-73762201D02*
X282634373Y-76960251D01*
X279136505Y-77082399D02*
X279024827Y-73884349D01*
X233679146Y-60739476D02*
X230213208Y-61226582D01*
X230213208Y-61226582D02*
X229767854Y-58057724D01*
X229767854Y-58057724D02*
X233233792Y-57570618D01*
X233233792Y-57570618D02*
X233679146Y-60739476D01*
X227892946Y-40947076D02*
X224427008Y-41434182D01*
X227447592Y-37778218D02*
X227892946Y-40947076D01*
X224427008Y-41434182D02*
X223981654Y-38265324D01*
X223981654Y-38265324D02*
X227447592Y-37778218D01*
X106333908Y-37861518D02*
X109799846Y-38348624D01*
X105888554Y-41030376D02*
X106333908Y-37861518D01*
X109799846Y-38348624D02*
X109354492Y-41517482D01*
X109354492Y-41517482D02*
X105888554Y-41030376D01*
X204504300Y-105460500D02*
X204504300Y-102260500D01*
X204504300Y-102260500D02*
X208004300Y-102260500D01*
X208004300Y-102260500D02*
X208004300Y-105460500D01*
X208004300Y-105460500D02*
X204504300Y-105460500D01*
X246707468Y-35491740D02*
X247041959Y-38674210D01*
X243226641Y-35857590D02*
X246707468Y-35491740D01*
X247041959Y-38674210D02*
X243561132Y-39040060D01*
X243561132Y-39040060D02*
X243226641Y-35857590D01*
X90562459Y-35926190D02*
X90227968Y-39108660D01*
X86747141Y-38742810D02*
X87081632Y-35560340D01*
X90227968Y-39108660D02*
X86747141Y-38742810D01*
X87081632Y-35560340D02*
X90562459Y-35926190D01*
X262530953Y-34110571D02*
X266022427Y-33866424D01*
X262754173Y-37302776D02*
X262530953Y-34110571D01*
X266022427Y-33866424D02*
X266245647Y-37058629D01*
X266245647Y-37058629D02*
X262754173Y-37302776D01*
X71331453Y-57191029D02*
X71554673Y-53998824D01*
X71554673Y-53998824D02*
X75046147Y-54242971D01*
X75046147Y-54242971D02*
X74822927Y-57435176D01*
X74822927Y-57435176D02*
X71331453Y-57191029D01*
X52203705Y-53039201D02*
X55701573Y-53161349D01*
X55701573Y-53161349D02*
X55589895Y-56359399D01*
X52092027Y-56237251D02*
X52203705Y-53039201D01*
X55589895Y-56359399D02*
X52092027Y-56237251D01*
X252809859Y-58457410D02*
X249329032Y-58823260D01*
X248994541Y-55640790D02*
X252475368Y-55274940D01*
X249329032Y-58823260D02*
X248994541Y-55640790D01*
X252475368Y-55274940D02*
X252809859Y-58457410D01*
X185471227Y-82859124D02*
X185694447Y-86051329D01*
X182202973Y-86295476D02*
X181979753Y-83103271D01*
X185694447Y-86051329D02*
X182202973Y-86295476D01*
X181979753Y-83103271D02*
X185471227Y-82859124D01*
M02*
