G04 #@! TF.GenerationSoftware,KiCad,Pcbnew,(6.0.10)*
G04 #@! TF.CreationDate,2023-05-24T02:59:04+09:00*
G04 #@! TF.ProjectId,PARALLAX,50415241-4c4c-4415-982e-6b696361645f,rev?*
G04 #@! TF.SameCoordinates,Original*
G04 #@! TF.FileFunction,Legend,Top*
G04 #@! TF.FilePolarity,Positive*
%FSLAX46Y46*%
G04 Gerber Fmt 4.6, Leading zero omitted, Abs format (unit mm)*
G04 Created by KiCad (PCBNEW (6.0.10)) date 2023-05-24 02:59:04*
%MOMM*%
%LPD*%
G01*
G04 APERTURE LIST*
G04 APERTURE END LIST*
G36*
X66042730Y-82689687D02*
G01*
X66238391Y-82694157D01*
X66379558Y-82699457D01*
X66478567Y-82707655D01*
X66547755Y-82720822D01*
X66599458Y-82741024D01*
X66646013Y-82770331D01*
X66681368Y-82796778D01*
X66796562Y-82915630D01*
X66883632Y-83064731D01*
X66929018Y-83218610D01*
X66932545Y-83268553D01*
X66904827Y-83418125D01*
X66830712Y-83571775D01*
X66723760Y-83704030D01*
X66681374Y-83740327D01*
X66626219Y-83780123D01*
X66574173Y-83807530D01*
X66511082Y-83825287D01*
X66422795Y-83836131D01*
X66295157Y-83842802D01*
X66126289Y-83847722D01*
X65697434Y-83858733D01*
X65697434Y-84588684D01*
X65530329Y-84588684D01*
X65530329Y-83719737D01*
X65697434Y-83719737D01*
X66032718Y-83719737D01*
X66226909Y-83714125D01*
X66380060Y-83698169D01*
X66478291Y-83673655D01*
X66616409Y-83586908D01*
X66700482Y-83462785D01*
X66732924Y-83297451D01*
X66733487Y-83268553D01*
X66716234Y-83111591D01*
X66660891Y-82992010D01*
X66562077Y-82906347D01*
X66414414Y-82851137D01*
X66212524Y-82822918D01*
X66032718Y-82817369D01*
X65697434Y-82817369D01*
X65697434Y-83719737D01*
X65530329Y-83719737D01*
X65530329Y-82678979D01*
X66042730Y-82689687D01*
G37*
G36*
X63708061Y-83414468D02*
G01*
X63738740Y-83297411D01*
X63755095Y-83251842D01*
X63866311Y-83032523D01*
X64008329Y-82866821D01*
X64172666Y-82754273D01*
X64350842Y-82694416D01*
X64534376Y-82686785D01*
X64714788Y-82730918D01*
X64883596Y-82826349D01*
X65032319Y-82972615D01*
X65152477Y-83169253D01*
X65213567Y-83331594D01*
X65256275Y-83564418D01*
X65249031Y-83789173D01*
X65197793Y-83999092D01*
X65108519Y-84187411D01*
X64987166Y-84347363D01*
X64839692Y-84472185D01*
X64672055Y-84555110D01*
X64490213Y-84589373D01*
X64300123Y-84568208D01*
X64168476Y-84518351D01*
X63982333Y-84390406D01*
X63841276Y-84214684D01*
X63747132Y-83994363D01*
X63701728Y-83732621D01*
X63699871Y-83703027D01*
X63698394Y-83636184D01*
X63875987Y-83636184D01*
X63900739Y-83883460D01*
X63973004Y-84093701D01*
X64089794Y-84261218D01*
X64248120Y-84380317D01*
X64273160Y-84392678D01*
X64435690Y-84439429D01*
X64594946Y-84423163D01*
X64760274Y-84342894D01*
X64763038Y-84341072D01*
X64897746Y-84214246D01*
X64994378Y-84046317D01*
X65052906Y-83850898D01*
X65073298Y-83641603D01*
X65055524Y-83432043D01*
X64999555Y-83235832D01*
X64905360Y-83066582D01*
X64772908Y-82937907D01*
X64766161Y-82933364D01*
X64613375Y-82852799D01*
X64473847Y-82828831D01*
X64329013Y-82859277D01*
X64285839Y-82876875D01*
X64116890Y-82986598D01*
X63990801Y-83145101D01*
X63909953Y-83347971D01*
X63876728Y-83590797D01*
X63875987Y-83636184D01*
X63698394Y-83636184D01*
X63696271Y-83540148D01*
X63708061Y-83414468D01*
G37*
G36*
X52102930Y-85791842D02*
G01*
X52232682Y-85921595D01*
X52309495Y-86005226D01*
X52348101Y-86075817D01*
X52361328Y-86163496D01*
X52362434Y-86226316D01*
X52357378Y-86334953D01*
X52333659Y-86410733D01*
X52278447Y-86483780D01*
X52232682Y-86531037D01*
X52102930Y-86660790D01*
X50891908Y-86660790D01*
X50891908Y-86460263D01*
X51159276Y-86460263D01*
X51561848Y-86460263D01*
X51732976Y-86459507D01*
X51850816Y-86455710D01*
X51928921Y-86446577D01*
X51980841Y-86429815D01*
X52020126Y-86403130D01*
X52046453Y-86378230D01*
X52115135Y-86278353D01*
X52117193Y-86180353D01*
X52052629Y-86080695D01*
X52046453Y-86074402D01*
X52008026Y-86039685D01*
X51966151Y-86016446D01*
X51907278Y-86002391D01*
X51817856Y-85995227D01*
X51684333Y-85992660D01*
X51561848Y-85992369D01*
X51159276Y-85992369D01*
X51159276Y-86460263D01*
X50891908Y-86460263D01*
X50891908Y-85791842D01*
X52102930Y-85791842D01*
G37*
G36*
X65831119Y-84922895D02*
G01*
X65831119Y-87730263D01*
X67535592Y-87730263D01*
X67535592Y-88799737D01*
X64728224Y-88799737D01*
X64728224Y-88599211D01*
X64962171Y-88599211D01*
X67301645Y-88599211D01*
X67301645Y-87930790D01*
X65597171Y-87930790D01*
X65597171Y-85123421D01*
X64962171Y-85123421D01*
X64962171Y-88599211D01*
X64728224Y-88599211D01*
X64728224Y-84922895D01*
X65831119Y-84922895D01*
G37*
G36*
X53028174Y-88412612D02*
G01*
X53085346Y-88213845D01*
X53153981Y-87975170D01*
X53232330Y-87702671D01*
X53318644Y-87402431D01*
X53411172Y-87080533D01*
X53464573Y-86894737D01*
X53560418Y-86561492D01*
X53651578Y-86244983D01*
X53736226Y-85951521D01*
X53812536Y-85687419D01*
X53878681Y-85458990D01*
X53932835Y-85272544D01*
X53973169Y-85134396D01*
X53997859Y-85050856D01*
X54003958Y-85030936D01*
X54039052Y-84921739D01*
X54859155Y-84930672D01*
X55679258Y-84939606D01*
X56210156Y-86777763D01*
X56308248Y-87117490D01*
X56401169Y-87439495D01*
X56487191Y-87737781D01*
X56564588Y-88006350D01*
X56631632Y-88239203D01*
X56686596Y-88430341D01*
X56727752Y-88573767D01*
X56753373Y-88663481D01*
X56761359Y-88691924D01*
X56781664Y-88767927D01*
X56202628Y-88758766D01*
X55623591Y-88749606D01*
X55537403Y-88448816D01*
X55451215Y-88148027D01*
X54253390Y-88148027D01*
X54167202Y-88448816D01*
X54081014Y-88749606D01*
X53503297Y-88758761D01*
X53294263Y-88761660D01*
X53143157Y-88762189D01*
X53041083Y-88759554D01*
X52979146Y-88752957D01*
X52948450Y-88741603D01*
X52940099Y-88724696D01*
X52942931Y-88708629D01*
X52955217Y-88666088D01*
X52983430Y-88568111D01*
X53239631Y-88568111D01*
X53879537Y-88549079D01*
X53968506Y-88248290D01*
X54057476Y-87947500D01*
X54856413Y-87938569D01*
X55655351Y-87929637D01*
X55826155Y-88549079D01*
X56145565Y-88558595D01*
X56464974Y-88568111D01*
X55971779Y-86854121D01*
X55478584Y-85140132D01*
X54226021Y-85140132D01*
X53732826Y-86854121D01*
X53239631Y-88568111D01*
X52983430Y-88568111D01*
X52984214Y-88565387D01*
X53028174Y-88412612D01*
G37*
G36*
X52363766Y-82683684D02*
G01*
X52598873Y-82687641D01*
X52778880Y-82701983D01*
X52915196Y-82730423D01*
X53019228Y-82776670D01*
X53102386Y-82844435D01*
X53176076Y-82937429D01*
X53185061Y-82950817D01*
X53255820Y-83113615D01*
X53271850Y-83290779D01*
X53236977Y-83466064D01*
X53155023Y-83623227D01*
X53029815Y-83746024D01*
X52992354Y-83769364D01*
X52870490Y-83837722D01*
X53067646Y-84187995D01*
X53144150Y-84326074D01*
X53206814Y-84443291D01*
X53249184Y-84527277D01*
X53264803Y-84565665D01*
X53264803Y-84565696D01*
X53236310Y-84582229D01*
X53172981Y-84582549D01*
X53129579Y-84570588D01*
X53087615Y-84538890D01*
X53039460Y-84477611D01*
X52977485Y-84376908D01*
X52894059Y-84226936D01*
X52886329Y-84212698D01*
X52691498Y-83853421D01*
X52061645Y-83853421D01*
X52061645Y-84588684D01*
X51894540Y-84588684D01*
X51894540Y-83719737D01*
X52061645Y-83719737D01*
X52387500Y-83719003D01*
X52569490Y-83714466D01*
X52703226Y-83700138D01*
X52806901Y-83673510D01*
X52853178Y-83654787D01*
X52981915Y-83563923D01*
X53064164Y-83438993D01*
X53098855Y-83294974D01*
X53084918Y-83146841D01*
X53021282Y-83009573D01*
X52907235Y-82898382D01*
X52848158Y-82868516D01*
X52766848Y-82847744D01*
X52649450Y-82833844D01*
X52482113Y-82824590D01*
X52437632Y-82822970D01*
X52061645Y-82810155D01*
X52061645Y-83719737D01*
X51894540Y-83719737D01*
X51894540Y-82683684D01*
X52363766Y-82683684D01*
G37*
G36*
X72272768Y-86795203D02*
G01*
X72330351Y-86595545D01*
X72359906Y-86493684D01*
X72568792Y-85775132D01*
X72742587Y-85765030D01*
X72840005Y-85761533D01*
X72903069Y-85763425D01*
X72916382Y-85767442D01*
X72925322Y-85803418D01*
X72949947Y-85892175D01*
X72986961Y-86022407D01*
X73033068Y-86182805D01*
X73084974Y-86362059D01*
X73139383Y-86548861D01*
X73193000Y-86731904D01*
X73242529Y-86899877D01*
X73284676Y-87041474D01*
X73316144Y-87145385D01*
X73333639Y-87200302D01*
X73334959Y-87203882D01*
X73338941Y-87224643D01*
X73326367Y-87239828D01*
X73288636Y-87250301D01*
X73217146Y-87256927D01*
X73103297Y-87260570D01*
X72938486Y-87262094D01*
X72752852Y-87262369D01*
X72560220Y-87261058D01*
X72393092Y-87257415D01*
X72261943Y-87251876D01*
X72177249Y-87244875D01*
X72149359Y-87237303D01*
X72158792Y-87199259D01*
X72184298Y-87106560D01*
X72196913Y-87061842D01*
X72452090Y-87061842D01*
X72736619Y-87061842D01*
X72874557Y-87060519D01*
X72957675Y-87054800D01*
X72997974Y-87042062D01*
X73007453Y-87019683D01*
X73004183Y-87003356D01*
X72988788Y-86950551D01*
X72958701Y-86847564D01*
X72918004Y-86708363D01*
X72870781Y-86546915D01*
X72861632Y-86515642D01*
X72736047Y-86086416D01*
X72646748Y-86398669D01*
X72600666Y-86558855D01*
X72554529Y-86717650D01*
X72516006Y-86848704D01*
X72504770Y-86886382D01*
X72452090Y-87061842D01*
X72196913Y-87061842D01*
X72223187Y-86968708D01*
X72272768Y-86795203D01*
G37*
G36*
X60748437Y-88412612D02*
G01*
X60805609Y-88213845D01*
X60874244Y-87975170D01*
X60952594Y-87702671D01*
X61038907Y-87402431D01*
X61131435Y-87080533D01*
X61184836Y-86894737D01*
X61280681Y-86561492D01*
X61371841Y-86244983D01*
X61456489Y-85951521D01*
X61532799Y-85687419D01*
X61598945Y-85458990D01*
X61653098Y-85272544D01*
X61693433Y-85134396D01*
X61718122Y-85050856D01*
X61724221Y-85030936D01*
X61759315Y-84921739D01*
X62579418Y-84930672D01*
X63399522Y-84939606D01*
X63930420Y-86777763D01*
X64028511Y-87117490D01*
X64121432Y-87439495D01*
X64207455Y-87737781D01*
X64284851Y-88006350D01*
X64351895Y-88239203D01*
X64406859Y-88430341D01*
X64448015Y-88573767D01*
X64473637Y-88663481D01*
X64481622Y-88691924D01*
X64501927Y-88767927D01*
X63922891Y-88758766D01*
X63343855Y-88749606D01*
X63257666Y-88448816D01*
X63171478Y-88148027D01*
X61973653Y-88148027D01*
X61887465Y-88448816D01*
X61801277Y-88749606D01*
X61223560Y-88758761D01*
X61014526Y-88761660D01*
X60863420Y-88762189D01*
X60761347Y-88759554D01*
X60699409Y-88752957D01*
X60668713Y-88741603D01*
X60660362Y-88724696D01*
X60663194Y-88708629D01*
X60675480Y-88666088D01*
X60703693Y-88568111D01*
X60959895Y-88568111D01*
X61279847Y-88558595D01*
X61599800Y-88549079D01*
X61688770Y-88248290D01*
X61777739Y-87947500D01*
X62576676Y-87938569D01*
X63375614Y-87929637D01*
X63546418Y-88549079D01*
X63865828Y-88558595D01*
X64185237Y-88568111D01*
X63692042Y-86854121D01*
X63198848Y-85140132D01*
X61946284Y-85140132D01*
X61453089Y-86854121D01*
X60959895Y-88568111D01*
X60703693Y-88568111D01*
X60704477Y-88565387D01*
X60748437Y-88412612D01*
G37*
G36*
X62198290Y-86485778D02*
G01*
X62254447Y-86294676D01*
X62302890Y-86127161D01*
X62339385Y-85997842D01*
X62356579Y-85933882D01*
X62401387Y-85758421D01*
X62741765Y-85758421D01*
X63179871Y-87262369D01*
X61965532Y-87262369D01*
X62038293Y-87020066D01*
X62297205Y-87020066D01*
X62306581Y-87041208D01*
X62359814Y-87054322D01*
X62465402Y-87060698D01*
X62572566Y-87061842D01*
X62717443Y-87059553D01*
X62804902Y-87051708D01*
X62844244Y-87036844D01*
X62847205Y-87018607D01*
X62832216Y-86971911D01*
X62802730Y-86874146D01*
X62762666Y-86738499D01*
X62715943Y-86578157D01*
X62703443Y-86534934D01*
X62656959Y-86375831D01*
X62617225Y-86243406D01*
X62587734Y-86149025D01*
X62571978Y-86104053D01*
X62570430Y-86101919D01*
X62559527Y-86134917D01*
X62533715Y-86220194D01*
X62496554Y-86345791D01*
X62451606Y-86499746D01*
X62438831Y-86543816D01*
X62391315Y-86707053D01*
X62349560Y-86848776D01*
X62317504Y-86955746D01*
X62299083Y-87014724D01*
X62297205Y-87020066D01*
X62038293Y-87020066D01*
X62138652Y-86685856D01*
X62198290Y-86485778D01*
G37*
G36*
X59033056Y-82691989D02*
G01*
X59221937Y-82725792D01*
X59241864Y-82732053D01*
X59354351Y-82783077D01*
X59474687Y-82859172D01*
X59588352Y-82948227D01*
X59680826Y-83038129D01*
X59737593Y-83116766D01*
X59748487Y-83154676D01*
X59729291Y-83208753D01*
X59673717Y-83209786D01*
X59584787Y-83158728D01*
X59479755Y-83069985D01*
X59286307Y-82929595D01*
X59077651Y-82850156D01*
X58863139Y-82831506D01*
X58652118Y-82873482D01*
X58453940Y-82975922D01*
X58321431Y-83090164D01*
X58195695Y-83264819D01*
X58127009Y-83457650D01*
X58111989Y-83658278D01*
X58147250Y-83856322D01*
X58229406Y-84041401D01*
X58355073Y-84203137D01*
X58520866Y-84331149D01*
X58723400Y-84415056D01*
X58756068Y-84423046D01*
X58971828Y-84438942D01*
X59179931Y-84393910D01*
X59369064Y-84293764D01*
X59527910Y-84144319D01*
X59636483Y-83970638D01*
X59686893Y-83860038D01*
X59712883Y-83782626D01*
X59707046Y-83732486D01*
X59661972Y-83703699D01*
X59570253Y-83690346D01*
X59424482Y-83686509D01*
X59280592Y-83686316D01*
X59103221Y-83685749D01*
X58982037Y-83682956D01*
X58906388Y-83676297D01*
X58865622Y-83664135D01*
X58849087Y-83644830D01*
X58846119Y-83619474D01*
X58849320Y-83594140D01*
X58865437Y-83576170D01*
X58904240Y-83564303D01*
X58975499Y-83557279D01*
X59088985Y-83553837D01*
X59254469Y-83552716D01*
X59364145Y-83552632D01*
X59882171Y-83552632D01*
X59882171Y-83713175D01*
X59851218Y-83905969D01*
X59765596Y-84097696D01*
X59636162Y-84274088D01*
X59473772Y-84420875D01*
X59289283Y-84523791D01*
X59256074Y-84536043D01*
X59077451Y-84574279D01*
X58872485Y-84583625D01*
X58673409Y-84564175D01*
X58556165Y-84533956D01*
X58386930Y-84445090D01*
X58224122Y-84307992D01*
X58086284Y-84140165D01*
X58022299Y-84030001D01*
X57945003Y-83801064D01*
X57929490Y-83568119D01*
X57972225Y-83341374D01*
X58069679Y-83131036D01*
X58218319Y-82947315D01*
X58414613Y-82800418D01*
X58455302Y-82778384D01*
X58622856Y-82719868D01*
X58824402Y-82690542D01*
X59033056Y-82691989D01*
G37*
G36*
X53644125Y-83499819D02*
G01*
X53753889Y-83355256D01*
X53902354Y-83243334D01*
X54087409Y-83174090D01*
X54196877Y-83158319D01*
X54329894Y-83157427D01*
X54456982Y-83170605D01*
X54517417Y-83184777D01*
X54680398Y-83268386D01*
X54822236Y-83396585D01*
X54930366Y-83553121D01*
X54992225Y-83721740D01*
X55001964Y-83811645D01*
X55002698Y-83920263D01*
X54367698Y-83920263D01*
X54133761Y-83920654D01*
X53959930Y-83923660D01*
X53839471Y-83932027D01*
X53765647Y-83948506D01*
X53731723Y-83975844D01*
X53730964Y-84016791D01*
X53756634Y-84074093D01*
X53801997Y-84150500D01*
X53802289Y-84150979D01*
X53929888Y-84307259D01*
X54080528Y-84404964D01*
X54244724Y-84443056D01*
X54412996Y-84420496D01*
X54575859Y-84336243D01*
X54675489Y-84246653D01*
X54767272Y-84161715D01*
X54834574Y-84130191D01*
X54850949Y-84132356D01*
X54897181Y-84176429D01*
X54884446Y-84250843D01*
X54812670Y-84356023D01*
X54811909Y-84356929D01*
X54663245Y-84484468D01*
X54482245Y-84562459D01*
X54283774Y-84588681D01*
X54082697Y-84560912D01*
X53916513Y-84490704D01*
X53749726Y-84361031D01*
X53634310Y-84203788D01*
X53568154Y-84029010D01*
X53549145Y-83846732D01*
X53563174Y-83749854D01*
X53732698Y-83749854D01*
X53761498Y-83765483D01*
X53849465Y-83776690D01*
X53998949Y-83783638D01*
X54212300Y-83786486D01*
X54267434Y-83786579D01*
X54467776Y-83786089D01*
X54610838Y-83783880D01*
X54706184Y-83778845D01*
X54763374Y-83769879D01*
X54791969Y-83755873D01*
X54801531Y-83735722D01*
X54802171Y-83724679D01*
X54774438Y-83627779D01*
X54701192Y-83520497D01*
X54597364Y-83420992D01*
X54501112Y-83358569D01*
X54328873Y-83302322D01*
X54157312Y-83312096D01*
X53983189Y-83388146D01*
X53963513Y-83400718D01*
X53875018Y-83479558D01*
X53796797Y-83583626D01*
X53744853Y-83688714D01*
X53732698Y-83749854D01*
X53563174Y-83749854D01*
X53575173Y-83666990D01*
X53644125Y-83499819D01*
G37*
G36*
X67351776Y-84571974D02*
G01*
X67276430Y-84582673D01*
X67210794Y-84574077D01*
X67184004Y-84548866D01*
X67179961Y-84505208D01*
X67176855Y-84403455D01*
X67174757Y-84252350D01*
X67173735Y-84060634D01*
X67173860Y-83837050D01*
X67175200Y-83590339D01*
X67175798Y-83518825D01*
X67184671Y-82533290D01*
X67351776Y-82533290D01*
X67351776Y-84571974D01*
G37*
G36*
X50669288Y-82688882D02*
G01*
X50883553Y-82691388D01*
X51125516Y-82694957D01*
X51308433Y-82699294D01*
X51440098Y-82705034D01*
X51528307Y-82712810D01*
X51580855Y-82723257D01*
X51605538Y-82737010D01*
X51610461Y-82750527D01*
X51598195Y-82774655D01*
X51554181Y-82791098D01*
X51467597Y-82801840D01*
X51327619Y-82808863D01*
X51284605Y-82810224D01*
X50958750Y-82819789D01*
X50958750Y-84588684D01*
X50791645Y-84588684D01*
X50791645Y-82817369D01*
X50474145Y-82817369D01*
X50326624Y-82816380D01*
X50233525Y-82811654D01*
X50182437Y-82800553D01*
X50160948Y-82780439D01*
X50156645Y-82749875D01*
X50158841Y-82727804D01*
X50170939Y-82711295D01*
X50201207Y-82699681D01*
X50257909Y-82692298D01*
X50349313Y-82688481D01*
X50483684Y-82687564D01*
X50669288Y-82688882D01*
G37*
G36*
X54478026Y-86485778D02*
G01*
X54534184Y-86294676D01*
X54582627Y-86127161D01*
X54619122Y-85997842D01*
X54636316Y-85933882D01*
X54681123Y-85758421D01*
X55021502Y-85758421D01*
X55459608Y-87262369D01*
X54245269Y-87262369D01*
X54318030Y-87020066D01*
X54576942Y-87020066D01*
X54586318Y-87041208D01*
X54639551Y-87054322D01*
X54745139Y-87060698D01*
X54852303Y-87061842D01*
X54997180Y-87059553D01*
X55084639Y-87051708D01*
X55123981Y-87036844D01*
X55126942Y-87018607D01*
X55111953Y-86971911D01*
X55082467Y-86874146D01*
X55042402Y-86738499D01*
X54995680Y-86578157D01*
X54983180Y-86534934D01*
X54936695Y-86375831D01*
X54896962Y-86243406D01*
X54867471Y-86149025D01*
X54851715Y-86104053D01*
X54850167Y-86101919D01*
X54839264Y-86134917D01*
X54813452Y-86220194D01*
X54776291Y-86345791D01*
X54731343Y-86499746D01*
X54718568Y-86543816D01*
X54671052Y-86707053D01*
X54629297Y-86848776D01*
X54597241Y-86955746D01*
X54578820Y-87014724D01*
X54576942Y-87020066D01*
X54318030Y-87020066D01*
X54418389Y-86685856D01*
X54478026Y-86485778D01*
G37*
G36*
X68872434Y-84922895D02*
G01*
X68872434Y-87730263D01*
X70576908Y-87730263D01*
X70576908Y-88799737D01*
X67769540Y-88799737D01*
X67769540Y-88599211D01*
X68003487Y-88599211D01*
X70342961Y-88599211D01*
X70342961Y-87930790D01*
X68638487Y-87930790D01*
X68638487Y-85123421D01*
X68003487Y-85123421D01*
X68003487Y-88599211D01*
X67769540Y-88599211D01*
X67769540Y-84922895D01*
X68872434Y-84922895D01*
G37*
G36*
X61071183Y-82683916D02*
G01*
X61249162Y-82685126D01*
X61376919Y-82688088D01*
X61462761Y-82693574D01*
X61515000Y-82702357D01*
X61541944Y-82715211D01*
X61551902Y-82732908D01*
X61553224Y-82750527D01*
X61548429Y-82781593D01*
X61525780Y-82801200D01*
X61472878Y-82811958D01*
X61377322Y-82816477D01*
X61235724Y-82817369D01*
X60918224Y-82817369D01*
X60918224Y-84588684D01*
X60751119Y-84588684D01*
X60751119Y-82817369D01*
X60433619Y-82817369D01*
X60286051Y-82816359D01*
X60192918Y-82811591D01*
X60141818Y-82800454D01*
X60120353Y-82780337D01*
X60116119Y-82750527D01*
X60118608Y-82728525D01*
X60131617Y-82711969D01*
X60163454Y-82700085D01*
X60222429Y-82692100D01*
X60316852Y-82687240D01*
X60455031Y-82684734D01*
X60645276Y-82683807D01*
X60834671Y-82683684D01*
X61071183Y-82683916D01*
G37*
G36*
X55477919Y-83085579D02*
G01*
X55487303Y-83487473D01*
X56122303Y-83102520D01*
X56307475Y-82990878D01*
X56473530Y-82891933D01*
X56611965Y-82810655D01*
X56714282Y-82752012D01*
X56771977Y-82720975D01*
X56781193Y-82717336D01*
X56814196Y-82742872D01*
X56838752Y-82780018D01*
X56844819Y-82804098D01*
X56833171Y-82832056D01*
X56797234Y-82868836D01*
X56730432Y-82919383D01*
X56626189Y-82988639D01*
X56477929Y-83081549D01*
X56279076Y-83203056D01*
X56263415Y-83212564D01*
X56079116Y-83324784D01*
X55911517Y-83427512D01*
X55770037Y-83514924D01*
X55664090Y-83581192D01*
X55603095Y-83620490D01*
X55594925Y-83626182D01*
X55580306Y-83643714D01*
X55584956Y-83666602D01*
X55615038Y-83699520D01*
X55676720Y-83747142D01*
X55776167Y-83814145D01*
X55919543Y-83905203D01*
X56113014Y-84024992D01*
X56154449Y-84050467D01*
X56338159Y-84164229D01*
X56503370Y-84268237D01*
X56641251Y-84356791D01*
X56742970Y-84424194D01*
X56799696Y-84464747D01*
X56807567Y-84471871D01*
X56818956Y-84521157D01*
X56789997Y-84555867D01*
X56770992Y-84571544D01*
X56751856Y-84580733D01*
X56725399Y-84579788D01*
X56684436Y-84565066D01*
X56621777Y-84532920D01*
X56530235Y-84479705D01*
X56402623Y-84401777D01*
X56231753Y-84295491D01*
X56038750Y-84174890D01*
X55487303Y-83830327D01*
X55477887Y-84209505D01*
X55473397Y-84372956D01*
X55467757Y-84481036D01*
X55458193Y-84545198D01*
X55441928Y-84576893D01*
X55416187Y-84587574D01*
X55385979Y-84588684D01*
X55303487Y-84588684D01*
X55303487Y-82683684D01*
X55468535Y-82683684D01*
X55477919Y-83085579D01*
G37*
G36*
X50038831Y-87503385D02*
G01*
X50033239Y-87143352D01*
X50028610Y-86765783D01*
X50025214Y-86394394D01*
X50023323Y-86052896D01*
X50023022Y-85884387D01*
X50022961Y-84924168D01*
X50110016Y-84902319D01*
X50164282Y-84897867D01*
X50276422Y-84895684D01*
X50437507Y-84895698D01*
X50638610Y-84897838D01*
X50870803Y-84902030D01*
X51125157Y-84908204D01*
X51237976Y-84911416D01*
X52278882Y-84942362D01*
X52471566Y-85035562D01*
X52707504Y-85183923D01*
X52905823Y-85377327D01*
X53060972Y-85605227D01*
X53167403Y-85857074D01*
X53219565Y-86122322D01*
X53211908Y-86390423D01*
X53205293Y-86430039D01*
X53170610Y-86572794D01*
X53122946Y-86717037D01*
X53092430Y-86789316D01*
X52984812Y-86958280D01*
X52832065Y-87126517D01*
X52653465Y-87275420D01*
X52479408Y-87381049D01*
X52402545Y-87417198D01*
X52334288Y-87443430D01*
X52261588Y-87461622D01*
X52171398Y-87473651D01*
X52050671Y-87481393D01*
X51886358Y-87486727D01*
X51719079Y-87490431D01*
X51159276Y-87501950D01*
X51159276Y-88799737D01*
X50067150Y-88799737D01*
X50062630Y-88599211D01*
X50290329Y-88599211D01*
X50891908Y-88599211D01*
X50891908Y-87302879D01*
X51535263Y-87289724D01*
X51794635Y-87282681D01*
X51998479Y-87271504D01*
X52158099Y-87253279D01*
X52284796Y-87225089D01*
X52389874Y-87184018D01*
X52484637Y-87127150D01*
X52580387Y-87051570D01*
X52630758Y-87007121D01*
X52792671Y-86818971D01*
X52901516Y-86602069D01*
X52958070Y-86367267D01*
X52963113Y-86125415D01*
X52917424Y-85887364D01*
X52821780Y-85663964D01*
X52676961Y-85466067D01*
X52509821Y-85321878D01*
X52420102Y-85265467D01*
X52327111Y-85220632D01*
X52222042Y-85186099D01*
X52096087Y-85160599D01*
X51940442Y-85142858D01*
X51746300Y-85131605D01*
X51504854Y-85125569D01*
X51207299Y-85123478D01*
X51135544Y-85123421D01*
X50290329Y-85123421D01*
X50290329Y-88599211D01*
X50062630Y-88599211D01*
X50045117Y-87822171D01*
X50038831Y-87503385D01*
G37*
G36*
X58446726Y-85791842D02*
G01*
X58683466Y-85793439D01*
X58863518Y-85799799D01*
X58996990Y-85813272D01*
X59093991Y-85836213D01*
X59164632Y-85870973D01*
X59219021Y-85919904D01*
X59265271Y-85982305D01*
X59313766Y-86107205D01*
X59324951Y-86256749D01*
X59298826Y-86400125D01*
X59265271Y-86470327D01*
X59216970Y-86535055D01*
X59162111Y-86583355D01*
X59090584Y-86617582D01*
X58992280Y-86640086D01*
X58857089Y-86653220D01*
X58674901Y-86659336D01*
X58446726Y-86660790D01*
X57876908Y-86660790D01*
X57876908Y-86460263D01*
X58110855Y-86460263D01*
X58493625Y-86460263D01*
X58667837Y-86456752D01*
X58815976Y-86447073D01*
X58922657Y-86432513D01*
X58962321Y-86421113D01*
X59043414Y-86350624D01*
X59077017Y-86243097D01*
X59067780Y-86148493D01*
X59037589Y-86086853D01*
X58976967Y-86042794D01*
X58877214Y-86013948D01*
X58729632Y-85997952D01*
X58525521Y-85992439D01*
X58493625Y-85992369D01*
X58110855Y-85992369D01*
X58110855Y-86460263D01*
X57876908Y-86460263D01*
X57876908Y-85791842D01*
X58446726Y-85791842D01*
G37*
G36*
X68730395Y-83157715D02*
G01*
X68822303Y-83168290D01*
X68822303Y-84571974D01*
X68730395Y-84582549D01*
X68662760Y-84580465D01*
X68639560Y-84544236D01*
X68638487Y-84524062D01*
X68634877Y-84473895D01*
X68614374Y-84460260D01*
X68562465Y-84482919D01*
X68497255Y-84521717D01*
X68361364Y-84572334D01*
X68195627Y-84587620D01*
X68026920Y-84567610D01*
X67897558Y-84520947D01*
X67778574Y-84441466D01*
X67689887Y-84339891D01*
X67628437Y-84207339D01*
X67591164Y-84034928D01*
X67575009Y-83813777D01*
X67575464Y-83586053D01*
X67585724Y-83168290D01*
X67752829Y-83168290D01*
X67769540Y-83669606D01*
X67779333Y-83893419D01*
X67793693Y-84060675D01*
X67815639Y-84181639D01*
X67848189Y-84266577D01*
X67894365Y-84325756D01*
X67957185Y-84369442D01*
X67978642Y-84380528D01*
X68149178Y-84436420D01*
X68304397Y-84427507D01*
X68447394Y-84353164D01*
X68536553Y-84267981D01*
X68638487Y-84151885D01*
X68638487Y-83147139D01*
X68730395Y-83157715D01*
G37*
G36*
X69786740Y-83172263D02*
G01*
X69937625Y-83231184D01*
X70041238Y-83323642D01*
X70060354Y-83354952D01*
X70098769Y-83435563D01*
X70101472Y-83473739D01*
X70065737Y-83485180D01*
X70037648Y-83485790D01*
X69965810Y-83462285D01*
X69892000Y-83405629D01*
X69890884Y-83404433D01*
X69786821Y-83332511D01*
X69659535Y-83301364D01*
X69527792Y-83308895D01*
X69410359Y-83353011D01*
X69326003Y-83431615D01*
X69306691Y-83469651D01*
X69290670Y-83579032D01*
X69335528Y-83664876D01*
X69442135Y-83728047D01*
X69607698Y-83768843D01*
X69811180Y-83820626D01*
X69969693Y-83901653D01*
X70079245Y-84005513D01*
X70135843Y-84125793D01*
X70135493Y-84256080D01*
X70074202Y-84389960D01*
X70029225Y-84445831D01*
X69963914Y-84512032D01*
X69905159Y-84550239D01*
X69829983Y-84569456D01*
X69715405Y-84578688D01*
X69686659Y-84580086D01*
X69525774Y-84579767D01*
X69403299Y-84558655D01*
X69323619Y-84528213D01*
X69206489Y-84450320D01*
X69131546Y-84352719D01*
X69109607Y-84250429D01*
X69111824Y-84234185D01*
X69146574Y-84173321D01*
X69202302Y-84162802D01*
X69255920Y-84202713D01*
X69271898Y-84233584D01*
X69339132Y-84332386D01*
X69443520Y-84400794D01*
X69568635Y-84437539D01*
X69698052Y-84441357D01*
X69815346Y-84410980D01*
X69904092Y-84345142D01*
X69937932Y-84284935D01*
X69954606Y-84161133D01*
X69941934Y-84104149D01*
X69928273Y-84072785D01*
X69907863Y-84047596D01*
X69870732Y-84024543D01*
X69806912Y-83999589D01*
X69706431Y-83968698D01*
X69559321Y-83927832D01*
X69401279Y-83885223D01*
X69284984Y-83829409D01*
X69186053Y-83738861D01*
X69121850Y-83632857D01*
X69106874Y-83558423D01*
X69138197Y-83409568D01*
X69224203Y-83287735D01*
X69355590Y-83200610D01*
X69523056Y-83155880D01*
X69599234Y-83151579D01*
X69786740Y-83172263D01*
G37*
G36*
X74808281Y-88448528D02*
G01*
X74907225Y-88301277D01*
X75021178Y-88130007D01*
X75144861Y-87942771D01*
X75272996Y-87747626D01*
X75400305Y-87552628D01*
X75521510Y-87365831D01*
X75631332Y-87195291D01*
X75724494Y-87049064D01*
X75795717Y-86935205D01*
X75839723Y-86861770D01*
X75851679Y-86838121D01*
X75836553Y-86800212D01*
X75788554Y-86713670D01*
X75711955Y-86585432D01*
X75611027Y-86422437D01*
X75490042Y-86231622D01*
X75353271Y-86019925D01*
X75263568Y-85882972D01*
X75117974Y-85661656D01*
X74983701Y-85457228D01*
X74865297Y-85276636D01*
X74767308Y-85126830D01*
X74694282Y-85014755D01*
X74650766Y-84947362D01*
X74640706Y-84931250D01*
X74645815Y-84916384D01*
X74684930Y-84905283D01*
X74764852Y-84897496D01*
X74892385Y-84892570D01*
X75074331Y-84890055D01*
X75270003Y-84889474D01*
X75923095Y-84889474D01*
X76225066Y-85340658D01*
X76327090Y-85492103D01*
X76415806Y-85621910D01*
X76484779Y-85720816D01*
X76527579Y-85779562D01*
X76538437Y-85791842D01*
X76559698Y-85765427D01*
X76611152Y-85692401D01*
X76686410Y-85582095D01*
X76779079Y-85443840D01*
X76846991Y-85341336D01*
X77144145Y-84890830D01*
X77806183Y-84890152D01*
X78039582Y-84890757D01*
X78212931Y-84893408D01*
X78333006Y-84898543D01*
X78406580Y-84906598D01*
X78440427Y-84918011D01*
X78442686Y-84931250D01*
X78418725Y-84968372D01*
X78362518Y-85054428D01*
X78278585Y-85182530D01*
X78171444Y-85345790D01*
X78045615Y-85537320D01*
X77905617Y-85750232D01*
X77808451Y-85897907D01*
X77199752Y-86822787D01*
X77824919Y-87769486D01*
X77973924Y-87995204D01*
X78111727Y-88204104D01*
X78233858Y-88389395D01*
X78335845Y-88544290D01*
X78413217Y-88661998D01*
X78461505Y-88735732D01*
X78475865Y-88757961D01*
X78471608Y-88772703D01*
X78433636Y-88783697D01*
X78355174Y-88791377D01*
X78229447Y-88796182D01*
X78049680Y-88798548D01*
X77839604Y-88798956D01*
X77177566Y-88798174D01*
X76539940Y-87833976D01*
X76223753Y-88316513D01*
X75907566Y-88799051D01*
X75255855Y-88792299D01*
X75002122Y-88788938D01*
X74722851Y-88784024D01*
X74443522Y-88778081D01*
X74189615Y-88771633D01*
X74055034Y-88767576D01*
X73505924Y-88749606D01*
X73420465Y-88439737D01*
X73335006Y-88129869D01*
X72135720Y-88148027D01*
X72050431Y-88457171D01*
X71965142Y-88766316D01*
X71385747Y-88766316D01*
X71176235Y-88765870D01*
X71024722Y-88763919D01*
X70922367Y-88759540D01*
X70860330Y-88751812D01*
X70829769Y-88739812D01*
X70821844Y-88722620D01*
X70824767Y-88707829D01*
X70837347Y-88665249D01*
X70866646Y-88564651D01*
X70876095Y-88532086D01*
X71145066Y-88532086D01*
X71176830Y-88548162D01*
X71265695Y-88559579D01*
X71402017Y-88565313D01*
X71462566Y-88565790D01*
X71632456Y-88561948D01*
X71738540Y-88550520D01*
X71779572Y-88531650D01*
X71780066Y-88528847D01*
X71789319Y-88481850D01*
X71814021Y-88388112D01*
X71849580Y-88264660D01*
X71865641Y-88211347D01*
X71951216Y-87930790D01*
X73541881Y-87930790D01*
X73616968Y-88210194D01*
X73653842Y-88341754D01*
X73687047Y-88450241D01*
X73711076Y-88518000D01*
X73716419Y-88529022D01*
X73762042Y-88549957D01*
X73867976Y-88559848D01*
X74037028Y-88558952D01*
X74043075Y-88558762D01*
X74345366Y-88549079D01*
X73854888Y-86844606D01*
X73364410Y-85140132D01*
X72740976Y-85131045D01*
X72117543Y-85121958D01*
X72051328Y-85348282D01*
X71986359Y-85571195D01*
X71913388Y-85823028D01*
X71834426Y-86096718D01*
X71751482Y-86385204D01*
X71666568Y-86681420D01*
X71581694Y-86978305D01*
X71498870Y-87268795D01*
X71420107Y-87545827D01*
X71347415Y-87802339D01*
X71282805Y-88031266D01*
X71228287Y-88225547D01*
X71185872Y-88378118D01*
X71157570Y-88481917D01*
X71145391Y-88529879D01*
X71145066Y-88532086D01*
X70876095Y-88532086D01*
X70910869Y-88412241D01*
X70968218Y-88214227D01*
X71036897Y-87976817D01*
X71115111Y-87706218D01*
X71201063Y-87408638D01*
X71292956Y-87090285D01*
X71330091Y-86961579D01*
X71425150Y-86632086D01*
X71516020Y-86317129D01*
X71600744Y-86023490D01*
X71677364Y-85757954D01*
X71743924Y-85527302D01*
X71798465Y-85338318D01*
X71839030Y-85197784D01*
X71863663Y-85112485D01*
X71867914Y-85097777D01*
X71918829Y-84921738D01*
X73564397Y-84939606D01*
X74100981Y-86802734D01*
X74199003Y-87142108D01*
X74291810Y-87461544D01*
X74377725Y-87755393D01*
X74455071Y-88018007D01*
X74522170Y-88243737D01*
X74577343Y-88426934D01*
X74618914Y-88561950D01*
X74645205Y-88643137D01*
X74654276Y-88665603D01*
X74676528Y-88638746D01*
X74704499Y-88599211D01*
X75022346Y-88599211D01*
X75750876Y-88599211D01*
X76130011Y-88014853D01*
X76244852Y-87840228D01*
X76348933Y-87686453D01*
X76436399Y-87561816D01*
X76501397Y-87474607D01*
X76538071Y-87433111D01*
X76542566Y-87430812D01*
X76569962Y-87457722D01*
X76627387Y-87532724D01*
X76708982Y-87647516D01*
X76808888Y-87793800D01*
X76921246Y-87963274D01*
X76955059Y-88015169D01*
X77334131Y-88599211D01*
X78062786Y-88599211D01*
X77917949Y-88373619D01*
X77856327Y-88278254D01*
X77765740Y-88138878D01*
X77653920Y-87967348D01*
X77528599Y-87775519D01*
X77397510Y-87575247D01*
X77350010Y-87502779D01*
X77229444Y-87317581D01*
X77122251Y-87150379D01*
X77033599Y-87009442D01*
X76968651Y-86903038D01*
X76932575Y-86839435D01*
X76926908Y-86825581D01*
X76944512Y-86790418D01*
X76994267Y-86706723D01*
X77071587Y-86581806D01*
X77171886Y-86422975D01*
X77290579Y-86237541D01*
X77423080Y-86032814D01*
X77455140Y-85983593D01*
X77591350Y-85774608D01*
X77716275Y-85582739D01*
X77825073Y-85415436D01*
X77912901Y-85280150D01*
X77974920Y-85184335D01*
X78006286Y-85135441D01*
X78008559Y-85131777D01*
X78005330Y-85112744D01*
X77962843Y-85100147D01*
X77872766Y-85092957D01*
X77726770Y-85090144D01*
X77670290Y-85090000D01*
X77306833Y-85090000D01*
X76934671Y-85658158D01*
X76820919Y-85829854D01*
X76718573Y-85980622D01*
X76633500Y-86102119D01*
X76571569Y-86186001D01*
X76538647Y-86223925D01*
X76535827Y-86225271D01*
X76510498Y-86198089D01*
X76455311Y-86122849D01*
X76376085Y-86008020D01*
X76278637Y-85862069D01*
X76168787Y-85693464D01*
X76145420Y-85657113D01*
X75781695Y-85090000D01*
X75416540Y-85090000D01*
X75251513Y-85091681D01*
X75144940Y-85097406D01*
X75088500Y-85108196D01*
X75073873Y-85125074D01*
X75076572Y-85131777D01*
X75100720Y-85169613D01*
X75156559Y-85255973D01*
X75239248Y-85383404D01*
X75343947Y-85544454D01*
X75465815Y-85731673D01*
X75600008Y-85937607D01*
X75629992Y-85983593D01*
X75764997Y-86191601D01*
X75887260Y-86381860D01*
X75992198Y-86547086D01*
X76075230Y-86679996D01*
X76131772Y-86773310D01*
X76157242Y-86819745D01*
X76158224Y-86823046D01*
X76140686Y-86858292D01*
X76091498Y-86941116D01*
X76015797Y-87063289D01*
X75918719Y-87216579D01*
X75805401Y-87392758D01*
X75735528Y-87500243D01*
X75604529Y-87701134D01*
X75476428Y-87897825D01*
X75358927Y-88078470D01*
X75259728Y-88231226D01*
X75186534Y-88344249D01*
X75167590Y-88373619D01*
X75022346Y-88599211D01*
X74704499Y-88599211D01*
X74729622Y-88563702D01*
X74808281Y-88448528D01*
G37*
G36*
X61998050Y-83759875D02*
G01*
X62122787Y-83603619D01*
X62272011Y-83423275D01*
X62361475Y-83317616D01*
X62532708Y-83117968D01*
X62667138Y-82964200D01*
X62770473Y-82850615D01*
X62848423Y-82771512D01*
X62906695Y-82721192D01*
X62951000Y-82693956D01*
X62987047Y-82684104D01*
X62996475Y-82683684D01*
X63090592Y-82683684D01*
X63090592Y-83950022D01*
X63249342Y-83960209D01*
X63354131Y-83974090D01*
X63402269Y-84000666D01*
X63408092Y-84020527D01*
X63385428Y-84055072D01*
X63311051Y-84075046D01*
X63249342Y-84080845D01*
X63090592Y-84091031D01*
X63090592Y-84339858D01*
X63089377Y-84466883D01*
X63082784Y-84541171D01*
X63066396Y-84576820D01*
X63035795Y-84587927D01*
X63012610Y-84588684D01*
X62942422Y-84580045D01*
X62912347Y-84566404D01*
X62901139Y-84523990D01*
X62893137Y-84434157D01*
X62890066Y-84316314D01*
X62890066Y-84087369D01*
X62355329Y-84087369D01*
X62155433Y-84086998D01*
X62012753Y-84085072D01*
X61917662Y-84080367D01*
X61860535Y-84071661D01*
X61831746Y-84057732D01*
X61821669Y-84037357D01*
X61820592Y-84019458D01*
X61841971Y-83974259D01*
X61844621Y-83970395D01*
X61954276Y-83970395D01*
X61970987Y-83987106D01*
X61987698Y-83970395D01*
X61970987Y-83953684D01*
X62051482Y-83953684D01*
X62890066Y-83953684D01*
X62888864Y-83460724D01*
X62887662Y-82967763D01*
X62813667Y-83056417D01*
X62766555Y-83112367D01*
X62685618Y-83207969D01*
X62580381Y-83331997D01*
X62460365Y-83473223D01*
X62395577Y-83549378D01*
X62051482Y-83953684D01*
X61970987Y-83953684D01*
X61954276Y-83970395D01*
X61844621Y-83970395D01*
X61902784Y-83885576D01*
X61998050Y-83759875D01*
G37*
G36*
X57015912Y-88290215D02*
G01*
X57013109Y-88046110D01*
X57010843Y-87765173D01*
X57009185Y-87453405D01*
X57008207Y-87116809D01*
X57007961Y-86837363D01*
X57007961Y-84919551D01*
X58119211Y-84929578D01*
X59230461Y-84939606D01*
X59423242Y-85029944D01*
X59614723Y-85146919D01*
X59801107Y-85308852D01*
X59962228Y-85495582D01*
X60075912Y-85682614D01*
X60117852Y-85779547D01*
X60144480Y-85867393D01*
X60159164Y-85966422D01*
X60165272Y-86096899D01*
X60166250Y-86226316D01*
X60164490Y-86391689D01*
X60156947Y-86510099D01*
X60140227Y-86601382D01*
X60110937Y-86685375D01*
X60074103Y-86764873D01*
X59998986Y-86890702D01*
X59897617Y-87026699D01*
X59811646Y-87122819D01*
X59641335Y-87293130D01*
X60095964Y-88014357D01*
X60219242Y-88210505D01*
X60329825Y-88387560D01*
X60422963Y-88537829D01*
X60493909Y-88653620D01*
X60537915Y-88727239D01*
X60550592Y-88750950D01*
X60518871Y-88755691D01*
X60430508Y-88759808D01*
X60295698Y-88763062D01*
X60124642Y-88765215D01*
X59927537Y-88766026D01*
X59907237Y-88766025D01*
X59263882Y-88765733D01*
X58495198Y-87498753D01*
X58303748Y-87497535D01*
X58112299Y-87496316D01*
X58103222Y-88139671D01*
X58094145Y-88783027D01*
X57574150Y-88792198D01*
X57394048Y-88793936D01*
X57237964Y-88792721D01*
X57117914Y-88788859D01*
X57045917Y-88782661D01*
X57031058Y-88778273D01*
X57026823Y-88741516D01*
X57022840Y-88643920D01*
X57020964Y-88565790D01*
X57232598Y-88565790D01*
X57876908Y-88565790D01*
X57876908Y-87295790D01*
X58638817Y-87295790D01*
X59419311Y-88565790D01*
X60145588Y-88565790D01*
X59727778Y-87893577D01*
X59309967Y-87221364D01*
X59387188Y-87167840D01*
X59549681Y-87036698D01*
X59696054Y-86884568D01*
X59808966Y-86730762D01*
X59851062Y-86651223D01*
X59910296Y-86448528D01*
X59929944Y-86217656D01*
X59909377Y-85984750D01*
X59870752Y-85834613D01*
X59775564Y-85645085D01*
X59630912Y-85465079D01*
X59453591Y-85312944D01*
X59320785Y-85233723D01*
X59130198Y-85140132D01*
X58202763Y-85129022D01*
X57275329Y-85117913D01*
X57275039Y-86666391D01*
X57274528Y-86988592D01*
X57273181Y-87295722D01*
X57271092Y-87580176D01*
X57268355Y-87834352D01*
X57265065Y-88050645D01*
X57261316Y-88221452D01*
X57257202Y-88339169D01*
X57253673Y-88390329D01*
X57232598Y-88565790D01*
X57020964Y-88565790D01*
X57019179Y-88491486D01*
X57015912Y-88290215D01*
G37*
M02*
